<svg xmlns="http://www.w3.org/2000/svg" fill="none" viewBox="0 0 693 346"><path stroke="url(#a)" stroke-miterlimit="10" d="m393.072 202.621-123.773-97.898 109.885 36.957 13.888 60.941Z"/><path stroke="url(#b)" stroke-miterlimit="10" d="M61.138 121.244 158.687 343 15.895 181.804l45.243-60.56Z"/><path stroke="url(#c)" stroke-miterlimit="10" d="m594.901 2.868-81.586 145.763 109.271-99.782-27.685-45.98Z"/><path stroke="url(#d)" stroke-miterlimit="10" d="m72.064 269.274 138.259-109.355-122.745 41.282-15.514 68.073Z"/><path stroke="url(#e)" stroke-miterlimit="10" d="M520.693 69.149 629.66 316.858 470.155 136.797l50.538-67.648Z"/><defs><linearGradient id="a" x1="378.518" x2="282.066" y1="138.761" y2="160.742" gradientUnits="userSpaceOnUse"><stop stop-color="#34245C"/><stop offset="1" stop-color="#8E80B1"/></linearGradient><linearGradient id="b" x1="186.682" x2="11.264" y1="297.699" y2="189.298" gradientUnits="userSpaceOnUse"><stop stop-color="#34245C"/><stop offset="1" stop-color="#8E80B1"/></linearGradient><linearGradient id="c" x1="496.671" x2="624.191" y1="114.737" y2="52.117" gradientUnits="userSpaceOnUse"><stop stop-color="#34245C"/><stop offset="1" stop-color="#8E80B1"/></linearGradient><linearGradient id="d" x1="198.488" x2="85.529" y1="231.859" y2="206.115" gradientUnits="userSpaceOnUse"><stop stop-color="#FF3400"/><stop offset=".323" stop-color="#F50"/><stop offset=".383" stop-color="#FF5703"/><stop offset=".419" stop-color="#FF5C0B"/><stop offset=".449" stop-color="#FF6619"/><stop offset=".476" stop-color="#FF732E"/><stop offset=".476" stop-color="#FF732E"/><stop offset=".823" stop-color="#FFB894"/><stop offset="1" stop-color="#FFD8C4"/></linearGradient><linearGradient id="e" x1="665.051" x2="463.614" y1="269.945" y2="145.466" gradientUnits="userSpaceOnUse"><stop stop-color="#FF3400"/><stop offset=".323" stop-color="#F50"/><stop offset=".383" stop-color="#FF5703"/><stop offset=".419" stop-color="#FF5C0B"/><stop offset=".449" stop-color="#FF6619"/><stop offset=".476" stop-color="#FF732E"/><stop offset=".476" stop-color="#FF732E"/><stop offset=".823" stop-color="#FFB894"/><stop offset="1" stop-color="#FFD8C4"/></linearGradient></defs></svg>