<svg xmlns="http://www.w3.org/2000/svg" fill="none" viewBox="0 0 90 30"><path fill="#fff" d="M20.403 14.833c-.01-1.68.75-2.947 2.288-3.881-.86-1.231-2.16-1.908-3.876-2.041-1.625-.128-3.4.947-4.05.947-.687 0-2.261-.901-3.497-.901C8.714 8.997 6 10.993 6 15.053c0 1.199.22 2.438.659 3.716.586 1.68 2.7 5.799 4.906 5.73 1.154-.027 1.968-.82 3.47-.82 1.455 0 2.21.82 3.496.82 2.224-.032 4.137-3.776 4.696-5.46-2.984-1.405-2.824-4.119-2.824-4.206Zm-2.59-7.515C19.061 5.835 18.948 4.485 18.91 4c-1.103.064-2.38.75-3.108 1.597-.8.906-1.272 2.028-1.171 3.29 1.194.092 2.284-.52 3.18-1.569ZM36 9.41l7.172-.988v6.93H36V9.41Zm0 12.68 7.172.988v-6.844H36v5.856Zm7.96 1.094L53.5 24.5v-8.266h-9.54v6.95Zm0-14.868v7.036h9.54V7l-9.54 1.316ZM67.955 23.924c1.055.126 2.24.81 3.232.93.997.126 1.305-.68 1.305-.68s1.123-.25 2.302-.279a9.665 9.665 0 0 1 2.299.246s.216.496.621.713c.405.22 1.276.25 1.834-.337.56-.593 2.052-1.34 2.89-1.806.844-.467.689-1.18.16-1.397-.53-.217-.963-.559-.93-1.214.028-.65-.468-1.084-.468-1.084s.434-1.43.03-2.616c-.405-1.18-1.74-3.076-2.765-4.503-1.026-1.43-.155-3.082-1.09-5.193-.933-2.114-3.356-1.989-4.662-1.088-1.305.901-.905 3.136-.842 4.196.063 1.055.029 1.81-.092 2.08-.12.276-.963 1.277-1.522 2.115-.559.842-.963 2.581-1.372 3.299-.4.713-.12 1.363-.12 1.363s-.28.096-.501.564c-.217.462-.65.683-1.431.834-.775.159-.775.659-.588 1.218.188.558 0 .871-.217 1.584-.217.713.868.93 1.927 1.055Zm10.965-3.253c.554.242 1.35-.095 1.592-.337.242-.242.412-.6.412-.6s.243.12.218.503c-.025.389.167.943.53 1.135.363.191.917.458.63.725-.293.267-1.911.918-2.395 1.426-.48.505-1.11.919-1.492.797-.388-.12-.727-.65-.56-1.425.172-.772.317-1.619.293-2.102-.026-.484-.121-1.135 0-1.232.12-.095.312-.049.312-.049s-.096.918.46 1.159ZM75.323 7.605c.534 0 .964.53.964 1.181 0 .462-.217.863-.534 1.055-.08-.033-.163-.07-.255-.11.192-.094.325-.336.325-.616 0-.366-.225-.667-.508-.667-.275 0-.505.3-.505.667 0 .133.033.267.088.371a22.238 22.238 0 0 0-.438-.17c-.063-.16-.1-.339-.1-.53 0-.651.429-1.18.963-1.18ZM74.002 9.64c.263.046.984.359 1.251.455.267.092.563.263.534.433-.033.177-.17.177-.534.398-.359.216-1.142.7-1.393.733-.25.033-.392-.108-.659-.28-.267-.175-.767-.584-.641-.8 0 0 .391-.3.562-.454.171-.16.613-.534.88-.485Zm-1.15-1.847c.42 0 .762.5.762 1.118 0 .112-.012.217-.033.321a.86.86 0 0 0-.31.175c-.048.042-.094.08-.136.121a.81.81 0 0 0 .062-.492c-.058-.333-.283-.58-.504-.547-.222.038-.355.343-.301.68.059.342.28.589.505.551l.037-.013a2.787 2.787 0 0 1-.313.272c-.304-.142-.53-.567-.53-1.068.001-.621.338-1.118.76-1.118Zm-2.344 8.078c.433-.683.713-2.177 1.146-2.674.438-.495.775-1.55.622-2.017 0 0 .934 1.117 1.584.934.651-.188 2.115-1.276 2.332-1.089.216.188 2.08 4.287 2.268 5.593.188 1.305-.124 2.302-.124 2.302s-.714-.188-.805.246c-.092.437-.092 2.023-.092 2.023s-.964 1.334-2.457 1.555c-1.492.217-2.24.059-2.24.059l-.838-.96s.651-.096.56-.75c-.092-.65-1.99-1.552-2.332-2.36-.342-.81-.063-2.178.376-2.862Zm-3.691 4.896c.075-.32 1.042-.32 1.413-.546.372-.225.447-.872.747-1.043.295-.175.842.447 1.067.797.221.341 1.068 1.835 1.414 2.207.35.374.671.87.571 1.317-.095.446-.621.772-.621.772-.471.145-1.784-.422-2.381-.672-.597-.25-2.115-.325-2.31-.546-.201-.226.096-.722.175-1.193.07-.476-.15-.772-.075-1.093Z"/></svg>