<svg xmlns="http://www.w3.org/2000/svg" fill="none" viewBox="0 0 120 36"><path fill="url(#a)" d="M37.97 22.788c-.144-.804-.54-1.442-1.186-1.91-.645-.466-1.692-.7-3.144-.7h-3.327a.436.436 0 0 1 0-.871h3.52c1.58 0 2.912-.26 3.993-.775a5.76 5.76 0 0 0 2.54-2.347c.61-1.047 1.095-2.443 1.45-4.186l.22-1.049.699-3.351c.547-2.484.34-4.372-.629-5.663C41.138.648 39.366.002 36.784.002H8.204a.435.435 0 0 0-.425.345L3.723 19.45.322 35.472a.434.434 0 0 0 .425.526h15.694a.435.435 0 0 0 .425-.345l2.69-12.664c.041-.2.22-.345.425-.345h1.259c.264 0 .467.232.43.494l-1.657 12.368a.436.436 0 0 0 .43.494h16.045a.437.437 0 0 0 .433-.389l1.022-9.578c.159-1.343.169-2.416.027-3.22V22.788ZM25.125 8.806l-1.597 7.354c-.098.42-.34.631-.726.631h-1.36a.434.434 0 0 1-.425-.526l1.653-7.742c.044-.2.22-.345.425-.345h1.546c.161 0 .29.056.386.169.098.115.13.266.098.46ZM80.172.002H48.727a.435.435 0 0 0-.418.313L44.93 11.948l-3.259 11.224L38.11 35.44a.436.436 0 0 0 .418.558H55.07c.2 0 .374-.137.423-.333l1.369-5.579a.436.436 0 0 1 .423-.332h1.714c.271 0 .476.244.428.51l-.922 5.22a.436.436 0 0 0 .428.511h16.61a.433.433 0 0 0 .43-.379l1.183-8.963.455-3.464L80.6.491A.434.434 0 0 0 80.17 0l.002.002ZM63.406 7.77l-1.756 9.928-1.29 7.308-.265 1.488a.435.435 0 0 1-.427.36h-1.455a.436.436 0 0 1-.423-.538l.374-1.525 1.88-7.646 2.35-9.554a.436.436 0 0 1 .422-.332h.162c.271 0 .477.244.428.51ZM119.673.55l-5.078 19.045c-.547 2-1.459 3.59-2.733 4.768-1.274 1.176-2.895 1.765-4.863 1.765h-1.98a.436.436 0 0 0-.425.345l-1.971 9.182a.436.436 0 0 1-.425.345H85.573a.435.435 0 0 1-.425-.526l1.686-7.867.25-1.156.068-.32h-2.457c-1.934 0-3.288-.59-4.063-1.766-.037-.056-.073-.112-.108-.171-.687-1.159-.892-2.692-.618-4.596L82.945.369a.436.436 0 0 1 .43-.367h16.324c.272 0 .479.247.428.516l-3.389 18.03a.434.434 0 0 0 .428.517h.687c.2 0 .377-.14.423-.335L102.665.337a.436.436 0 0 1 .423-.335h16.165c.286 0 .494.272.42.548Z"/><defs><linearGradient id="a" x1="114.924" x2="2.312" y1="17.25" y2="17.25" gradientUnits="userSpaceOnUse"><stop stop-color="#FF6C00"/><stop offset="1" stop-color="#FF3500"/></linearGradient></defs></svg>