<?xml version="1.0" encoding="UTF-8"?><svg id="a" xmlns="http://www.w3.org/2000/svg" xmlns:xlink="http://www.w3.org/1999/xlink" viewBox="0 0 250 76"><defs><style>.c{fill:url(#b);stroke-width:0px;}</style><linearGradient id="b" x1="248.727188" y1="38" x2=".662759" y2="38" gradientUnits="userSpaceOnUse"><stop offset="0" stop-color="#ff6c00"/><stop offset="1" stop-color="#ff3500"/></linearGradient></defs><path class="c" d="m178.356212,76l4.518063-21.40208h-6.593344c-3.734222,0-6.261358-1.0857-7.726436-3.319283-1.499608-2.349926-1.969223-5.606524-1.389111-9.668998L173.634912,0h35.077023l-7.638137,41.440139h4.286216L215.062086,0h34.937914l-10.908171,41.195418c-1.049233,4.132179-2.895625,7.458984-5.490342,9.899177-2.477313,2.324351-5.684699,3.503326-9.532379,3.503326h-5.87807l-4.437163,21.40208h-35.397663Zm-55.25958,0l2.353497-13.533889h-6.444369l-3.272994,13.533889h-35.639376L101.801207,0h66.931861l-9.949211,76h-35.687225Zm-3.065811-17.774388h6.15678l7.746661-44.542784h-3.132406l-10.771035,44.542784Zm-78.007751,17.774388l3.922166-28.955342h-4.556047l-6.089692,28.955342H0L15.878583,0h60.904323c5.137638,0,8.647412,1.269241,10.432637,3.772118,1.886349,2.556535,2.345111,6.449008,1.373819,11.582638l-1.957383,9.423775c-.731059,3.649256-1.765,6.609982-3.075184,8.807459-1.264308,2.056561-2.972579,3.661793-5.069071,4.759528-2.099452,1.035051-4.764216,1.565113-7.897608,1.565113h-9.012942l-1.110401,3.83731h9.607359c2.858135,0,4.911711.460357,6.102518,1.368032,1.257402.854017,1.95837,1.966295,2.189231,3.432617.328533,1.609745.3236,3.86439-.00592,6.74839l-2.274077,20.703019h-34.062814Zm2.170486-42.57699l-.64424,3.086096h3.198013c1.362966,0,2.3239-.787321,2.63566-2.159866l3.409636-16.065852c.154894-.942779-.134669-1.506942-.427191-1.831398-.393647-.500977-.956494-.776288-1.592841-.776288h-2.774769l-3.80427,17.747308Z"/></svg>