<svg width="250" height="56" viewBox="0 0 250 56" fill="none" xmlns="http://www.w3.org/2000/svg">
<path d="M130.106 55.44L133.402 39.8277H128.592C125.868 39.8277 124.025 39.0358 122.956 37.4064C121.862 35.6922 121.52 33.3166 121.943 30.3531L126.662 9.53674e-07H152.25L146.678 30.2295H149.805L156.882 9.53674e-07H182.368L174.411 30.051C173.646 33.0653 172.299 35.4921 170.406 37.2722C168.599 38.9677 166.259 39.8277 163.453 39.8277H159.165L155.928 55.44H130.106ZM89.7958 55.44L91.5126 45.5674H86.8116L84.424 55.44H58.426L74.2613 9.53674e-07H123.086L115.829 55.44H89.7958ZM87.5593 42.4741H92.0505L97.7015 9.98126H95.4165L87.5593 42.4741ZM30.6547 55.44L33.5158 34.3178H30.1923L25.7501 55.44H0L11.583 9.53674e-07H56.0111C59.7589 9.53674e-07 62.3192 0.925879 63.6214 2.75166C64.9975 4.61659 65.3321 7.45604 64.6236 11.2009L63.1958 18.0753C62.6625 20.7373 61.9082 22.8971 60.9525 24.5001C60.0302 26.0003 58.7841 27.1713 57.2547 27.972C55.7232 28.7271 53.7794 29.1138 51.4936 29.1138H44.9189L44.1089 31.913H51.1172C53.2022 31.913 54.7002 32.2488 55.5689 32.9109C56.4861 33.5339 56.9974 34.3453 57.1659 35.4149C57.4055 36.5892 57.4019 38.2339 57.1615 40.3377L55.5027 55.44H30.6547ZM32.238 24.3812L31.7681 26.6324H34.1009C35.0952 26.6324 35.7962 26.0581 36.0236 25.0569L38.5108 13.3373C38.6238 12.6495 38.4126 12.238 38.1992 12.0013C37.9121 11.6358 37.5015 11.435 37.0373 11.435H35.0132L32.238 24.3812Z" fill="url(#paint0_linear_2066_3430)"/>
<path d="M240.976 0.0719995C244.528 0.0719995 246.88 0.743999 248.032 2.088C249.232 3.432 249.496 5.616 248.824 8.64L240.688 46.872C240.016 49.896 238.816 52.08 237.088 53.424C235.36 54.768 232.72 55.44 229.168 55.44H226.216C222.712 55.44 220.384 54.768 219.232 53.424C218.032 52.08 217.768 49.896 218.44 46.872L226.504 8.64C227.176 5.616 228.376 3.432 230.104 2.088C231.88 0.743999 234.52 0.0719995 238.024 0.0719995H240.976ZM238.6 9.504C238.648 9.216 238.6 9 238.456 8.856C238.36 8.664 238.168 8.568 237.88 8.568H237.448C236.824 8.568 236.44 8.88 236.296 9.504L228.592 46.008C228.544 46.296 228.568 46.536 228.664 46.728C228.808 46.872 229.024 46.944 229.312 46.944H229.744C229.984 46.944 230.224 46.872 230.464 46.728C230.704 46.536 230.848 46.296 230.896 46.008L238.6 9.504Z" fill="url(#paint1_linear_2066_3430)"/>
<path d="M215.244 52.848C215.004 53.424 214.692 53.88 214.308 54.216C213.924 54.552 213.444 54.768 212.868 54.864C212.292 54.96 211.476 55.008 210.42 55.008C209.268 55.008 208.428 54.96 207.9 54.864C207.372 54.768 206.988 54.552 206.748 54.216C206.46 53.88 206.316 53.472 206.316 52.992C206.316 52.464 206.46 51.552 206.748 50.256C206.796 50.16 206.82 50.016 206.82 49.824C207.156 48.72 207.348 48.072 207.396 47.88C207.636 47.304 207.948 46.848 208.332 46.512C208.668 46.176 209.148 45.96 209.772 45.864C210.348 45.768 211.188 45.72 212.292 45.72C213.396 45.72 214.188 45.768 214.668 45.864C215.244 45.96 215.652 46.176 215.892 46.512C216.18 46.8 216.324 47.232 216.324 47.808C216.324 48.096 216.276 48.48 216.18 48.96C216.132 49.44 216.06 49.896 215.964 50.328C215.724 51.432 215.484 52.272 215.244 52.848Z" fill="url(#paint2_linear_2066_3430)"/>
<path d="M189.488 55.44C187.376 55.44 185.768 55.176 184.664 54.648C183.56 54.168 182.864 53.328 182.576 52.128C182.24 50.88 182.312 49.128 182.792 46.872L185.528 33.84H195.536L192.944 46.008C192.896 46.296 192.944 46.536 193.088 46.728C193.232 46.872 193.424 46.944 193.664 46.944H194.096C194.72 46.944 195.104 46.632 195.248 46.008L198.416 30.96H192.44L193.808 24.768H199.712L203.024 9.432C203.072 9.144 203.024 8.928 202.88 8.784C202.736 8.592 202.52 8.496 202.232 8.496H201.8C201.224 8.496 200.864 8.808 200.72 9.432L198.056 21.744H188.12L190.856 8.568C191.528 5.448 192.608 3.24 194.096 1.944C195.584 0.648001 197.984 0 201.296 0H206.624C208.784 0 210.416 0.264 211.52 0.791999C212.624 1.272 213.32 2.136 213.608 3.384C213.896 4.632 213.824 6.36 213.392 8.568L211.232 18.864C210.8 20.832 210.2 22.464 209.432 23.76C208.664 25.008 207.704 25.92 206.552 26.496C205.448 27.072 204.272 27.36 203.024 27.36H201.584L201.44 28.224H202.808C204.152 28.224 205.232 28.512 206.048 29.088C206.864 29.664 207.392 30.6 207.632 31.896C207.92 33.144 207.848 34.752 207.416 36.72L205.256 46.872C204.584 49.992 203.504 52.2 202.016 53.496C200.528 54.792 198.152 55.44 194.888 55.44H189.488Z" fill="url(#paint3_linear_2066_3430)"/>
<defs>
<linearGradient id="paint0_linear_2066_3430" x1="247.918" y1="27.72" x2="0.660601" y2="27.72" gradientUnits="userSpaceOnUse">
<stop stop-color="#FF6C00"/>
<stop offset="1" stop-color="#FF3500"/>
</linearGradient>
<linearGradient id="paint1_linear_2066_3430" x1="215.777" y1="0" x2="215.777" y2="60.1745" gradientUnits="userSpaceOnUse">
<stop stop-color="white" stop-opacity="0.3"/>
<stop offset="1" stop-color="white" stop-opacity="0.9"/>
</linearGradient>
<linearGradient id="paint2_linear_2066_3430" x1="215.777" y1="0" x2="215.777" y2="60.1745" gradientUnits="userSpaceOnUse">
<stop stop-color="white" stop-opacity="0.3"/>
<stop offset="1" stop-color="white" stop-opacity="0.9"/>
</linearGradient>
<linearGradient id="paint3_linear_2066_3430" x1="215.777" y1="0" x2="215.777" y2="60.1745" gradientUnits="userSpaceOnUse">
<stop stop-color="white" stop-opacity="0.3"/>
<stop offset="1" stop-color="white" stop-opacity="0.9"/>
</linearGradient>
</defs>
</svg>
