<svg width="222" height="56" viewBox="0 0 222 56" fill="none" xmlns="http://www.w3.org/2000/svg">
<path d="M131.42 56L134.749 40.23H129.891C127.14 40.23 125.278 39.4301 124.198 37.7843C123.093 36.0527 122.747 33.6531 123.174 30.6597L127.942 0H153.788L148.16 30.5348H151.318L158.467 0H184.211L176.173 30.3545C175.4 33.3993 174.039 35.8506 172.127 37.6487C170.302 39.3613 167.939 40.23 165.104 40.23H160.772L157.503 56H131.42ZM90.7028 56L92.4369 46.0277H87.6885L85.2768 56H59.0162L75.0114 0H124.33L116.999 56H90.7028ZM88.4438 42.9031H92.9803L98.6884 10.0821H96.3803L88.4438 42.9031ZM30.9644 56L33.8544 34.6645H30.4973L26.0102 56H0L11.7 0H56.5769C60.3625 0 62.9487 0.93523 64.2641 2.77946C65.654 4.66322 65.9921 7.53136 65.2764 11.314L63.8341 18.2579C63.2954 20.9468 62.5336 23.1284 61.5682 24.7476C60.6366 26.2629 59.3778 27.4457 57.8331 28.2546C56.2861 29.0173 54.3226 29.4078 52.0138 29.4078H45.3727L44.5545 32.2353H51.6336C53.7396 32.2353 55.2527 32.5745 56.1302 33.2434C57.0567 33.8726 57.5732 34.6922 57.7433 35.7726C57.9854 36.9588 57.9817 38.6201 57.7389 40.7451L56.0633 56H30.9644ZM32.5637 24.6275L32.089 26.9014H34.4454C35.4497 26.9014 36.1577 26.3213 36.3875 25.31L38.8998 13.472C39.014 12.7773 38.8006 12.3616 38.5851 12.1225C38.295 11.7534 37.8803 11.5505 37.4114 11.5505H35.3668L32.5637 24.6275Z" fill="url(#paint0_linear_2024_752)"/>
<path d="M191.887 56C189.657 56 187.936 55.7091 186.724 55.1273C185.56 54.5939 184.809 53.6727 184.469 52.3636C184.081 51.0061 184.13 49.1394 184.615 46.7636L187.305 34.1818H200.396L197.924 45.6727C197.875 45.9636 197.924 46.2061 198.069 46.4C198.215 46.5455 198.409 46.6182 198.651 46.6182H199.087C199.718 46.6182 200.105 46.303 200.251 45.6727L203.305 31.3455H195.596L196.978 24.9455H204.687L207.815 10.3273C207.863 10.0364 207.815 9.81818 207.669 9.67273C207.524 9.47879 207.305 9.38182 207.015 9.38182H206.578C205.996 9.38182 205.633 9.69697 205.487 10.3273L202.942 21.9636H189.924L192.615 9.23636C193.293 5.93939 194.457 3.58788 196.105 2.18182C197.754 0.727272 200.324 0 203.815 0H213.633C216.057 0 217.875 0.266666 219.087 0.799998C220.348 1.33333 221.148 2.27879 221.487 3.63636C221.827 4.99394 221.754 6.86061 221.269 9.23636L219.305 18.4C218.869 20.4848 218.215 22.2303 217.342 23.6364C216.518 24.9939 215.475 26.0121 214.215 26.6909C212.954 27.3212 211.524 27.6364 209.924 27.6364H207.887L207.742 28.5091H209.705C211.305 28.5091 212.59 28.8242 213.56 29.4545C214.53 30.0848 215.16 31.0788 215.451 32.4364C215.742 33.7939 215.669 35.5636 215.233 37.7455L213.269 46.7636C212.59 50.0606 211.402 52.4364 209.705 53.8909C208.057 55.297 205.415 56 201.778 56H191.887Z" fill="url(#paint1_linear_2024_752)"/>
<defs>
<linearGradient id="paint0_linear_2024_752" x1="220.568" y1="28" x2="0.587726" y2="28" gradientUnits="userSpaceOnUse">
<stop stop-color="#FF6C00"/>
<stop offset="1" stop-color="#FF3500"/>
</linearGradient>
<linearGradient id="paint1_linear_2024_752" x1="201.508" y1="-9.51919" x2="201.508" y2="69.4189" gradientUnits="userSpaceOnUse">
<stop stop-color="white" stop-opacity="0.3"/>
<stop offset="1" stop-color="white" stop-opacity="0.9"/>
</linearGradient>
</defs>
</svg>
