<svg xmlns="http://www.w3.org/2000/svg" fill="none" viewBox="0 0 112 48"><g clip-path="url(#a)"><path fill="#197593" d="M.004 1.837a1.8 1.8 0 0 1 .161-.717A1.887 1.887 0 0 1 1.935 0H110.06a1.896 1.896 0 0 1 1.936 1.837v44.322a1.88 1.88 0 0 1-1.21 1.711c-.233.09-.479.13-.726.126H1.935a1.886 1.886 0 0 1-1.774-1.12A1.897 1.897 0 0 1 0 46.159V1.837h.004Z"/><path fill="#fff" d="m17.99 29.472 2.047-2.79c1.214.998 2.598 1.684 4.05 1.684 1.021 0 1.554-.448 1.554-1.089v-.022c0-.596-.448-.959-2.195-1.577-2.813-.959-4.793-1.98-4.793-4.69v-.063c0-2.706 2.07-4.6 5.326-4.6 2.003 0 3.763.55 5.326 1.809l-1.94 2.854c-1.02-.789-2.257-1.362-3.471-1.362-.873 0-1.362.425-1.362.98v.023c0 .659.47 1 2.365 1.702 2.832.919 4.601 2.07 4.601 4.601v.045c0 2.898-2.235 4.69-5.434 4.69a9.086 9.086 0 0 1-6.07-2.195h-.004ZM33.055 16.544h5.331c3.517 0 5.82 1.832 5.82 5.178v.085c0 3.575-2.6 5.286-5.86 5.327h-1.47v4.327h-3.82V16.544Zm5.156 7.458c1.34 0 2.15-.788 2.15-2.047v-.063c0-1.362-.788-2.07-2.172-2.07h-1.317v4.176h1.34v.004ZM50.266 16.459h3.88l5.268 14.997h-4.028l-.873-2.683h-4.69l-.851 2.683H45.02l5.25-14.997h-.004Zm3.28 9.246-1.385-4.368-1.384 4.368h2.768ZM63.714 19.993H60.02v-3.454h11.208v3.454h-3.683v11.463h-3.83V19.993ZM74.537 16.544h3.835V31.46h-3.835V16.544ZM83.658 16.544H93.93v3.364h-6.478v2.446h5.833v3.176h-5.833v2.562h6.563v3.369H83.667V16.544h-.01Z"/></g><defs><clipPath id="a"><path fill="#fff" d="M.004 0h111.993v48H.004z"/></clipPath></defs></svg>