<svg width="1165" height="238" viewBox="0 0 1165 238" fill="none" xmlns="http://www.w3.org/2000/svg">
<path d="M662.927 168.328H661.081C651.59 168.328 650.272 165.955 650.272 153.827V96.6164H662.927C690.345 96.6164 695.355 116.651 695.355 132.207C695.355 148.29 690.345 168.328 662.927 168.328ZM551.669 131.678V96.6164H562.477C574.341 96.6164 579.616 104.787 579.616 114.278C579.616 123.507 574.341 131.678 562.477 131.678H551.669ZM662.136 88.7074H614.943V93.7144C629.706 93.7144 632.078 96.8784 632.078 115.598V149.346C632.078 168.064 629.706 171.492 614.943 171.492C603.608 169.91 595.961 163.844 585.414 152.245L573.289 139.064C589.633 136.162 598.333 125.88 598.333 114.278C598.333 99.7804 585.943 88.7074 562.742 88.7074H516.339V93.7144C531.102 93.7144 533.475 96.8784 533.475 115.598V149.346C533.475 168.064 531.102 171.492 516.339 171.492V176.499H568.805V171.492C554.042 171.492 551.669 168.064 551.669 149.346V139.855H556.15L585.414 176.499H662.136C699.839 176.499 716.183 156.464 716.183 132.469C716.183 108.48 699.839 88.7074 662.136 88.7074Z" fill="#32373C"/>
<path d="M369.493 141.437L387.684 87.6481C392.959 72.0951 390.586 67.6141 373.712 67.6141V62.3391H423.279V67.6141C406.669 67.6141 402.715 71.5681 396.123 90.8151L366.065 180.983H362.639L335.745 98.4601L308.328 180.983H304.899L275.635 90.8151C269.308 71.5681 265.089 67.6141 249.797 67.6141V62.3391H308.328V67.6141C292.771 67.6141 288.552 71.3041 294.091 87.6481L311.753 141.437L338.382 62.3391H343.393L369.493 141.437Z" fill="#32373C"/>
<path d="M459.128 93.4526C434.874 93.4526 426.436 115.334 426.436 132.47C426.436 149.873 434.874 171.492 459.128 171.492C483.65 171.492 492.085 149.873 492.085 132.47C492.085 115.334 483.65 93.4526 459.128 93.4526ZM459.128 179.928C430.129 179.928 406.398 158.573 406.398 132.47C406.398 106.634 430.129 85.2756 459.128 85.2756C488.131 85.2756 511.858 106.634 511.858 132.47C511.858 158.573 488.131 179.928 459.128 179.928Z" fill="#32373C"/>
<path d="M775.499 71.8301H760.472V117.706H775.499C790.265 117.706 797.118 107.425 797.118 95.0341C797.118 82.3801 790.265 71.8301 775.499 71.8301ZM781.3 171.227V176.499H720.926V171.227C738.591 171.227 741.754 166.746 741.754 140.379V98.1981C741.754 71.8301 738.591 67.6141 720.926 67.6141V62.3391H775.499C802.655 62.3391 817.686 76.3141 817.686 95.0341C817.686 113.226 802.655 127.462 775.499 127.462H760.472V140.379C760.472 166.746 763.635 171.227 781.3 171.227Z" fill="#32373C"/>
<path d="M859.078 131.678V96.6164H869.886C881.75 96.6164 887.025 104.787 887.025 114.278C887.025 123.507 881.75 131.678 869.886 131.678H859.078ZM998.806 151.719L997.489 156.464C995.116 165.164 992.214 168.328 973.497 168.328H969.804C956.096 168.328 953.724 165.164 953.724 146.444V134.318C974.287 134.318 975.869 136.162 975.869 149.872H980.88V110.588H975.869C975.869 124.298 974.287 126.141 953.724 126.141V96.6164H968.222C986.942 96.6164 989.841 99.7804 992.214 108.48L993.534 113.487H997.75L995.907 88.7074H918.394V93.7144C933.157 93.7144 935.529 96.8774 935.529 115.598V149.346C935.529 166.469 933.513 170.783 921.874 171.397C910.81 169.709 903.214 163.674 892.823 152.245L880.694 139.064C897.042 136.162 905.742 125.88 905.742 114.278C905.742 99.7804 893.352 88.7074 870.151 88.7074H823.748V93.7144C838.511 93.7144 840.884 96.8774 840.884 115.598V149.346C840.884 168.063 838.511 171.492 823.748 171.492V176.499H876.213V171.492C861.451 171.492 859.078 168.063 859.078 149.346V139.855H863.559L892.823 176.499H1001.18L1002.76 151.719H998.806Z" fill="#32373C"/>
<path d="M1052.33 179.928C1041.78 179.928 1032.55 174.391 1028.6 170.963C1027.28 172.283 1024.91 176.238 1024.38 179.928H1019.37V143.546H1024.64C1026.75 160.946 1038.88 171.228 1054.44 171.228C1062.87 171.228 1069.73 166.482 1069.73 158.573C1069.73 151.719 1063.66 146.444 1052.85 141.437L1037.83 134.319C1027.28 129.306 1019.37 120.606 1019.37 109.007C1019.37 96.3517 1031.23 85.5437 1047.58 85.5437C1056.28 85.5437 1063.66 88.7077 1068.15 92.3967C1069.46 91.3417 1070.78 88.4397 1071.57 85.2757H1076.58V116.39H1071.05C1069.2 103.997 1062.35 93.7147 1048.37 93.7147C1040.99 93.7147 1034.13 97.9337 1034.13 104.526C1034.13 111.379 1039.67 115.07 1052.33 120.871L1066.83 127.989C1079.48 134.051 1084.49 143.81 1084.49 151.719C1084.49 168.329 1069.99 179.928 1052.33 179.928Z" fill="#32373C"/>
<path d="M1132.05 179.928C1121.5 179.928 1112.27 174.391 1108.32 170.963C1107 172.283 1104.63 176.238 1104.1 179.928H1099.09V143.546H1104.36C1106.47 160.946 1118.6 171.228 1134.16 171.228C1142.59 171.228 1149.45 166.482 1149.45 158.573C1149.45 151.719 1143.38 146.444 1132.57 141.437L1117.55 134.319C1107 129.306 1099.09 120.606 1099.09 109.007C1099.09 96.3517 1110.95 85.5437 1127.3 85.5437C1136 85.5437 1143.38 88.7077 1147.87 92.3967C1149.18 91.3417 1150.5 88.4397 1151.29 85.2757H1156.3V116.39H1150.76C1148.92 103.997 1142.06 93.7147 1128.09 93.7147C1120.71 93.7147 1113.85 97.9337 1113.85 104.526C1113.85 111.379 1119.39 115.07 1132.05 120.871L1146.55 127.989C1159.2 134.051 1164.21 143.81 1164.21 151.719C1164.21 168.329 1149.71 179.928 1132.05 179.928Z" fill="#32373C"/>
<path d="M119.288 0.644104C53.7629 0.644104 0.643921 53.7631 0.643921 119.288C0.643921 184.813 53.7629 237.932 119.288 237.932C184.813 237.932 237.932 184.813 237.932 119.288C237.932 53.7631 184.813 0.644104 119.288 0.644104ZM119.288 7.76311C134.347 7.76311 148.952 10.7101 162.697 16.5241C169.303 19.3181 175.676 22.7771 181.638 26.8051C187.545 30.7961 193.1 35.3791 198.148 40.4281C203.197 45.4761 207.78 51.0311 211.771 56.9381C215.799 62.9001 219.258 69.2731 222.052 75.8791C227.866 89.6241 230.813 104.229 230.813 119.288C230.813 134.347 227.866 148.952 222.052 162.697C219.258 169.303 215.799 175.676 211.771 181.638C207.78 187.545 203.197 193.1 198.148 198.148C193.1 203.197 187.545 207.78 181.638 211.771C175.676 215.799 169.303 219.258 162.697 222.052C148.952 227.866 134.347 230.813 119.288 230.813C104.229 230.813 89.6239 227.866 75.8799 222.052C69.2729 219.258 62.8999 215.799 56.9379 211.771C51.0309 207.78 45.4759 203.197 40.4279 198.148C35.3789 193.1 30.7959 187.545 26.8049 181.638C22.7779 175.676 19.3179 169.303 16.5239 162.697C10.7099 148.952 7.76292 134.347 7.76292 119.288C7.76292 104.229 10.7099 89.6241 16.5239 75.8791C19.3179 69.2731 22.7779 62.9001 26.8049 56.9381C30.7959 51.0311 35.3789 45.4761 40.4279 40.4281C45.4759 35.3791 51.0309 30.7961 56.9379 26.8051C62.8999 22.7771 69.2729 19.3181 75.8799 16.5241C89.6239 10.7101 104.229 7.76311 119.288 7.76311Z" fill="#32373C"/>
<path d="M206.05 71.8539C206.474 75.0029 206.715 78.3809 206.715 82.0199C206.715 92.0489 204.836 103.327 199.194 117.431L168.997 204.741C198.391 187.604 218.158 155.759 218.158 119.285C218.158 102.095 213.766 85.9349 206.05 71.8539ZM121.025 127.933L91.3557 214.13C100.217 216.736 109.584 218.158 119.288 218.158C130.802 218.158 141.847 216.171 152.123 212.553C151.858 212.13 151.614 211.681 151.413 211.19L121.025 127.933ZM186.034 114.298C186.034 102.075 181.643 93.6159 177.883 87.0319C172.871 78.8839 168.171 71.9909 168.171 63.8429C168.171 54.7559 175.062 46.2959 184.774 46.2959C185.213 46.2959 185.628 46.3489 186.054 46.3759C168.464 30.2589 145.028 20.4179 119.288 20.4179C84.7447 20.4179 54.3587 38.1419 36.6787 64.9799C39.0007 65.0529 41.1877 65.0999 43.0427 65.0999C53.3817 65.0999 69.3937 63.8429 69.3937 63.8429C74.7207 63.5309 75.3507 71.3609 70.0257 71.9909C70.0257 71.9909 64.6677 72.6179 58.7107 72.9299L94.7137 180.024L116.354 115.134L100.951 72.9299C95.6237 72.6179 90.5807 71.9909 90.5807 71.9909C85.2507 71.6759 85.8757 63.5309 91.2077 63.8429C91.2077 63.8429 107.532 65.0999 117.247 65.0999C127.586 65.0999 143.601 63.8429 143.601 63.8429C148.93 63.5309 149.557 71.3609 144.23 71.9909C144.23 71.9909 138.867 72.6179 132.916 72.9299L168.646 179.209L178.846 146.889C183.377 132.765 186.034 122.758 186.034 114.298ZM20.4177 119.285C20.4177 158.418 43.1587 192.239 76.1427 208.263L28.9787 79.0479C23.4927 91.3429 20.4177 104.95 20.4177 119.285Z" fill="#32373C"/>
</svg>
