<svg width="55" height="54" viewBox="0 0 55 54" fill="none" xmlns="http://www.w3.org/2000/svg">
<path d="M43.5643 17.9909C43.5591 17.9757 43.553 17.9609 43.5459 17.9464C43.5366 17.9183 43.525 17.891 43.5113 17.8647C43.5007 17.8484 43.4889 17.8328 43.476 17.8183C43.4616 17.7968 43.4459 17.7763 43.4289 17.7568C43.4138 17.7424 43.3949 17.7306 43.3785 17.7176C43.3599 17.7015 43.3402 17.6866 43.3197 17.6731L37.0248 14.0489C36.9453 14.003 36.8551 13.9788 36.7632 13.9788C36.6714 13.9788 36.5812 14.003 36.5016 14.0489L30.2055 17.6751C30.1853 17.6887 30.166 17.7038 30.1479 17.7202C30.1301 17.7322 30.113 17.7453 30.0969 17.7594C30.0798 17.7785 30.064 17.7989 30.0498 17.8202C30.0387 17.8359 30.0243 17.8497 30.0145 17.8667C30.0013 17.8931 29.9899 17.9204 29.9805 17.9484C29.9753 17.9634 29.9668 17.9772 29.9622 17.9929C29.9502 18.0372 29.944 18.083 29.9439 18.1289V25.011L24.6979 28.0316V14.5649C24.698 14.5187 24.6919 14.4727 24.6796 14.4282C24.6757 14.4125 24.6665 14.3988 24.6613 14.3837C24.6522 14.3558 24.6408 14.3287 24.6273 14.3027C24.6181 14.2857 24.6031 14.2719 24.592 14.2556C24.5776 14.2341 24.5619 14.2136 24.5449 14.1941C24.5286 14.1801 24.5116 14.167 24.4939 14.1549C24.4756 14.139 24.4564 14.1241 24.4364 14.1104L18.1395 10.4862C18.06 10.4403 17.9698 10.4161 17.8779 10.4161C17.7861 10.4161 17.6959 10.4403 17.6164 10.4862L11.3208 14.1104C11.3004 14.1238 11.2811 14.1389 11.2633 14.1555C11.2452 14.1675 11.228 14.1806 11.2116 14.1948C11.1947 14.2139 11.1792 14.2342 11.1652 14.2556C11.1534 14.2719 11.139 14.2857 11.1292 14.3027C11.1158 14.3287 11.1047 14.3558 11.0959 14.3837C11.0887 14.398 11.0824 14.4126 11.0769 14.4276C11.0649 14.4723 11.0587 14.5185 11.0586 14.5649V36.1255C11.0583 36.2176 11.0824 36.3081 11.1283 36.3879C11.1743 36.4677 11.2404 36.5339 11.3202 36.58L23.9086 43.8283C23.9366 43.8424 23.9657 43.8542 23.9956 43.8636C24.0093 43.8689 24.0224 43.8767 24.0368 43.8806C24.1246 43.9042 24.2171 43.9042 24.3049 43.8806C24.318 43.8774 24.3291 43.8702 24.3409 43.8662C24.3725 43.8563 24.4031 43.8436 24.4324 43.8283L37.0248 36.58C37.1045 36.5339 37.1707 36.4677 37.2166 36.3879C37.2626 36.3081 37.2866 36.2176 37.2864 36.1255V29.2421L43.3184 25.7689C43.3986 25.7226 43.4651 25.6559 43.511 25.5754C43.557 25.495 43.5808 25.4038 43.5799 25.3112V18.1276C43.5803 18.0816 43.575 18.0357 43.5643 17.9909ZM17.8773 11.5463L23.1213 14.5642L17.8766 17.5842L12.6333 14.5649L17.8773 11.5463ZM23.6483 15.4699V28.6352L20.6055 30.3871L18.4024 31.6558V18.4925L21.4452 16.7406L23.6483 15.4699ZM23.6483 42.4635L12.1075 35.8221V15.4726L14.3107 16.7399L17.3528 18.4925V32.5641C17.3541 32.5839 17.3568 32.6035 17.3607 32.623C17.3622 32.6489 17.3657 32.6747 17.3711 32.7001C17.3778 32.7204 17.3861 32.7401 17.396 32.759C17.4033 32.7815 17.4124 32.8034 17.4234 32.8244C17.4355 32.8421 17.4486 32.8591 17.4627 32.8754C17.4758 32.8947 17.4902 32.913 17.5058 32.9303C17.5209 32.9447 17.5398 32.9552 17.5562 32.9682C17.5741 32.9837 17.5928 32.9982 17.6124 33.0114L23.6412 36.4237L23.6483 42.4635ZM24.1715 35.5206L18.936 32.5569L24.435 29.3912L30.4683 25.918L35.7084 28.9347L31.8632 31.1293L24.1715 35.5206ZM36.2381 35.8194L24.6966 42.4668V36.4302L33.245 31.5518L36.2381 29.8417V35.8194ZM36.2381 28.029L34.035 26.7649L30.9922 25.013V19.0346L33.1953 20.3033L36.2381 22.0565V28.029ZM36.7613 21.1442L31.5166 18.125L36.7613 15.1064L42.0046 18.1243L36.7613 21.1442ZM37.2844 28.029V22.0565L40.3338 20.3033L42.5362 19.0346V25.011L37.2844 28.029Z" fill="white"/>
</svg>
