<svg width="54" height="54" viewBox="0 0 54 54" fill="none" xmlns="http://www.w3.org/2000/svg">
<path d="M13.3686 21.3113L20.2203 40.0775C15.4275 37.7554 12.1266 32.8411 12.1266 27.1572C12.1266 25.0713 12.5721 23.1002 13.3686 21.3113ZM36.1783 26.4349C36.1783 24.6596 35.5438 23.431 34.997 22.4724C34.268 21.2911 33.5862 20.2853 33.5862 19.1039C33.5862 17.7809 34.5852 16.5523 35.9961 16.5523C36.0568 16.5523 36.1176 16.559 36.1851 16.5658C33.6267 14.2234 30.2245 12.7923 26.4847 12.7923C21.4692 12.7923 17.0544 15.3642 14.4825 19.266C14.82 19.2795 15.1372 19.2862 15.4073 19.2862C16.9059 19.2862 19.2348 19.1039 19.2348 19.1039C20.0111 19.0567 20.0988 20.1975 19.3293 20.2853C19.3293 20.2853 18.553 20.373 17.6889 20.4203L22.9205 35.9733L26.0662 26.5497L23.8318 20.4203C23.0555 20.373 22.3265 20.2853 22.3265 20.2853C21.5502 20.238 21.6447 19.0567 22.4142 19.1039C22.4142 19.1039 24.7836 19.2862 26.1945 19.2862C27.693 19.2862 30.0219 19.1039 30.0219 19.1039C30.7982 19.0567 30.886 20.1975 30.1165 20.2853C30.1165 20.2853 29.3402 20.373 28.4761 20.4203L33.6672 35.8585L35.0983 31.0725C35.7058 29.0878 36.1783 27.6635 36.1783 26.4349ZM26.7345 28.4128L22.4277 40.9348C23.717 41.3129 25.0739 41.5221 26.4847 41.5221C28.1588 41.5221 29.7587 41.2319 31.2505 40.7053C31.21 40.6446 31.1763 40.5771 31.1493 40.5096L26.7345 28.4128ZM39.0878 20.265C39.1485 20.724 39.1823 21.2101 39.1823 21.7434C39.1823 23.2015 38.9123 24.8351 38.0887 26.8872L33.7009 39.5713C37.974 37.0803 40.8429 32.4563 40.8429 27.1572C40.8429 24.6595 40.2083 22.3104 39.0878 20.265ZM43.2258 27.1572C43.2258 36.3918 35.7126 43.8983 26.4847 43.8983C17.2501 43.8983 9.74365 36.3851 9.74365 27.1572C9.74365 17.9226 17.2501 10.4161 26.4847 10.4161C35.7126 10.4161 43.2258 17.9226 43.2258 27.1572ZM42.4562 27.1572C42.4562 18.3479 35.2873 11.1857 26.4847 11.1857C17.6754 11.1857 10.5132 18.3479 10.5132 27.1572C10.5132 35.9665 17.6822 43.1287 26.4847 43.1287C35.294 43.1287 42.4562 35.9665 42.4562 27.1572Z" fill="white"/>
</svg>
