<svg width="55" height="54" viewBox="0 0 55 54" fill="none" xmlns="http://www.w3.org/2000/svg">
<path d="M27.714 15.6249C15.3865 15.6249 5.39258 20.6898 5.39258 26.9378C5.39258 33.1858 15.3865 38.2507 27.714 38.2507C40.0415 38.2507 50.0354 33.1858 50.0354 26.9378C50.0354 20.6898 40.0415 15.6249 27.714 15.6249ZM21.9023 29.1415C21.3707 29.6407 20.7781 29.8457 20.1267 30.0567C19.4774 30.2698 18.6454 30.2272 17.6389 30.2272H15.356L14.7229 33.8798H12.0565L14.4348 21.4569H19.5646C21.1069 21.4569 22.2331 21.9013 22.9413 22.7109C23.6474 23.5226 23.8605 24.6711 23.5784 26.122C23.471 26.6997 23.2723 27.2566 22.99 27.7718C22.7025 28.2833 22.3354 28.7457 21.9023 29.1415ZM29.6905 30.2251L30.7416 24.9573C30.8633 24.3404 30.8187 23.8818 30.6097 23.6586C30.4027 23.4354 29.9603 23.2852 29.2826 23.2852H27.1661L25.8045 30.2251H23.1564L25.5366 18.1695H28.1848L27.5517 21.4569H29.9096C31.3909 21.4569 32.4157 21.7552 32.9778 22.2726C33.5419 22.7901 33.7103 23.4983 33.4851 24.6569L32.3771 30.2272H29.6884L29.6905 30.2251ZM44.3982 26.1423C44.2907 26.7167 44.0921 27.2703 43.8098 27.7819C43.5228 28.2902 43.1563 28.7492 42.7241 29.1415C42.1904 29.6407 41.5999 29.8457 40.9486 30.0567C40.2972 30.2698 39.4672 30.2272 38.4587 30.2272H36.1738L35.5427 33.8798H32.8743L35.2546 21.4569H40.3844C41.9266 21.4569 43.0529 21.9013 43.7611 22.7109C44.4672 23.5226 44.6803 24.6914 44.3982 26.1403V26.1423ZM39.3739 23.2832H37.5476L36.5492 28.3988H38.1726C39.2481 28.3988 40.0496 28.2933 40.5752 27.8875C41.1028 27.4816 41.4579 26.8546 41.6426 25.9069C41.8191 24.9979 41.7379 24.2876 41.3991 23.9122C41.0622 23.5388 40.3865 23.2832 39.3739 23.2832ZM18.5541 23.2832H16.7278L15.7315 28.3988H17.3548C18.4303 28.3988 19.2298 28.2933 19.7574 27.8875C20.285 27.4816 20.6381 26.8546 20.8228 25.9069C20.9993 24.9979 20.9202 24.2876 20.5813 23.9122C20.2444 23.5388 19.5667 23.2832 18.5541 23.2832Z" fill="white"/>
</svg>
