<svg width="55" height="54" viewBox="0 0 55 54" fill="none" xmlns="http://www.w3.org/2000/svg">
<path fill-rule="evenodd" clip-rule="evenodd" d="M38.6761 20.842C43.4446 22.3119 46.5724 24.6705 46.5724 27.1659V27.183C46.5724 29.6612 43.4617 32.0198 38.7103 33.4897C39.8213 38.3437 39.3427 42.2063 37.1892 43.454C36.6935 43.7446 36.1124 43.8813 35.4629 43.8813C33.3607 43.8813 30.5919 42.3944 27.806 39.7965C25.0201 42.3944 22.2512 43.8984 20.149 43.8984C19.4995 43.8984 18.9184 43.7617 18.4228 43.4711C16.2521 42.2234 15.7565 38.3437 16.8674 33.4726C12.0989 32.0028 8.97119 29.627 8.97119 27.1488C8.97119 24.6705 12.0818 22.3119 16.8504 20.842C15.7394 15.9881 16.218 12.1254 18.3715 10.8777C18.8671 10.5872 19.4483 10.4504 20.0977 10.4504C22.2 10.4504 24.9688 11.9203 27.7547 14.5182C30.5577 11.9032 33.3094 10.4163 35.4117 10.4163C36.044 10.4163 36.6252 10.553 37.1208 10.8435C39.2914 12.0912 39.7871 15.971 38.6761 20.842ZM36.2833 12.3476C36.0166 12.202 35.7154 12.1311 35.4117 12.1425H35.3946C33.8051 12.1425 31.4635 13.4073 28.9682 15.7317C30.062 16.8597 31.1217 18.1416 32.1643 19.5602C33.8905 19.7482 35.5313 20.0217 37.0354 20.3977C37.2063 19.6285 37.343 18.8594 37.4285 18.1416C37.7703 15.219 37.3259 12.9458 36.2833 12.3476ZM22.0974 32.8915C21.7214 32.3104 21.3454 31.7122 20.9865 31.0969L21.0036 31.114C20.6447 30.4987 20.3028 29.8834 19.9952 29.2681C19.585 30.2936 19.2432 31.302 18.9526 32.2933C19.961 32.5326 21.0036 32.7377 22.0974 32.8915ZM22.0803 21.4573C20.9865 21.6112 19.9268 21.8163 18.9184 22.0555V22.0726C19.209 23.0639 19.5679 24.0894 19.9781 25.1149C20.2857 24.4996 20.6105 23.8843 20.9694 23.269C21.3283 22.6537 21.7043 22.0555 22.0803 21.4573ZM22.4563 24.1236C21.8752 25.132 21.3454 26.1575 20.8668 27.183C21.3454 28.2085 21.8752 29.2169 22.4563 30.2252C23.0545 31.2507 23.6869 32.2249 24.3193 33.1308C26.622 33.3381 28.9387 33.3381 31.2414 33.1308C31.8737 32.2249 32.489 31.2507 33.0872 30.2082C33.6683 29.1998 34.1982 28.1743 34.6767 27.1488C34.1982 26.1233 33.6683 25.1149 33.0872 24.1065C32.489 23.081 31.8566 22.1068 31.2243 21.201C28.9216 20.9936 26.6049 20.9936 24.3022 21.201C23.6698 22.1068 23.0545 23.081 22.4563 24.1236ZM35.5484 29.2169C35.2407 29.8321 34.916 30.4474 34.5571 31.0627C34.1982 31.678 33.8222 32.2762 33.4461 32.8744C34.54 32.7035 35.5997 32.4984 36.6081 32.2591C36.3031 31.2289 35.9495 30.2136 35.5484 29.2169ZM33.4461 21.4402C33.8222 22.0214 34.1982 22.6196 34.5571 23.2348L34.54 23.2178C34.8989 23.833 35.2407 24.4483 35.5484 25.0636C35.9586 24.0381 36.3004 23.0297 36.591 22.0384C35.5826 21.7992 34.54 21.5941 33.4461 21.4402ZM27.7718 19.3209C28.4725 19.3209 29.1904 19.338 29.874 19.3722C29.1562 18.4834 28.4554 17.663 27.7376 16.9281C27.0369 17.663 26.319 18.4834 25.6354 19.3722C26.3361 19.3209 27.071 19.3209 27.7718 19.3209ZM20.1148 12.1596C19.7559 12.1596 19.4483 12.228 19.2261 12.3647H19.2432C18.2177 12.98 17.7733 15.2531 18.1322 18.1758C18.2177 18.8936 18.3544 19.6285 18.5253 20.3977C20.0294 20.0217 21.6701 19.7482 23.3964 19.5602C24.4048 18.1416 25.4815 16.8597 26.5583 15.7317C24.0459 13.4244 21.7043 12.1596 20.1148 12.1596ZM17.2776 31.8267C16.5324 31.5874 15.8026 31.3345 15.1412 31.0456C12.4237 29.8834 10.6803 28.3623 10.6803 27.1659C10.6803 25.9695 12.4408 24.4312 15.1412 23.2861C15.8078 22.9956 16.5256 22.7563 17.2605 22.517C17.7049 24.0211 18.2689 25.5764 18.9868 27.183C18.286 28.7708 17.722 30.3244 17.2776 31.8267ZM19.2602 42.0013C19.4995 42.138 19.7901 42.2064 20.1319 42.2064C21.7385 42.2064 24.08 40.9416 26.5754 38.6171C25.4815 37.4891 24.4219 36.2073 23.3793 34.7887C21.653 34.6007 20.0123 34.3272 18.5082 33.9512C18.3373 34.7203 18.2006 35.4894 18.1151 36.2073C17.7733 39.1299 18.2177 41.4031 19.2602 42.0013ZM25.6524 34.9596C26.3703 35.8483 27.071 36.6687 27.7889 37.4037C28.4896 36.6687 29.2075 35.8483 29.8911 34.9596C29.1904 35.0109 28.4554 35.0108 27.7547 35.0108C27.0539 35.0108 26.3361 34.9938 25.6524 34.9596ZM35.4458 42.1722C35.8048 42.1722 36.1124 42.1038 36.3346 41.9671H36.3175C37.343 41.3518 37.7874 39.0786 37.4285 36.156C37.343 35.4552 37.2063 34.7032 37.0354 33.9341C35.5313 34.3101 33.8905 34.5836 32.1643 34.7716C31.1559 36.1902 30.0791 37.472 29.0024 38.6001C31.5148 40.9074 33.8563 42.1722 35.4458 42.1722ZM38.283 31.8148C39.018 31.5755 39.7358 31.3362 40.4024 31.0456C43.1199 29.9005 44.8803 28.3623 44.8803 27.1659C44.8803 25.9695 43.137 24.4483 40.4195 23.2861C39.7529 22.9956 39.018 22.7392 38.2659 22.4999C37.8216 24.004 37.2575 25.5593 36.5568 27.1488C37.2746 28.7554 37.8387 30.3107 38.283 31.8148ZM31.2755 27.1659C31.2755 29.0972 29.7031 30.6696 27.7718 30.6696C25.8405 30.6696 24.268 29.0972 24.268 27.1659C24.268 25.2345 25.8405 23.6621 27.7718 23.6621C29.7031 23.6621 31.2755 25.2345 31.2755 27.1659Z" fill="white"/>
</svg>
