<svg width="60" height="60" viewBox="0 0 60 60" fill="none" xmlns="http://www.w3.org/2000/svg">
<path d="M16.9099 47.848C19.0194 48.0999 21.3897 49.4665 23.3733 49.7078C25.3676 49.9596 25.9848 48.3497 25.9848 48.3497C25.9848 48.3497 28.229 47.848 30.5883 47.7902C32.95 47.724 35.1855 48.2814 35.1855 48.2814C35.1855 48.2814 35.6191 49.2743 36.4283 49.7078C37.2376 50.1497 38.9799 50.2095 40.0966 49.033C41.2155 47.848 44.2006 46.3553 45.8768 45.4222C47.5637 44.487 47.2541 43.0607 46.195 42.6272C45.136 42.1938 44.2691 41.5105 44.3352 40.1994C44.3929 38.899 43.4 38.0321 43.4 38.0321C43.4 38.0321 44.2691 35.1709 43.4598 32.8008C42.6505 30.4414 39.9815 26.647 37.9295 23.7943C35.8776 20.9331 37.6198 17.6298 35.7516 13.4084C33.8832 9.18057 29.0384 9.43048 26.4269 11.2325C23.8155 13.0347 24.6161 17.5037 24.7421 19.6241C24.8681 21.7337 24.7998 23.2433 24.5585 23.7858C24.3172 24.3366 22.6325 26.3374 21.5137 28.0136C20.397 29.6983 19.5876 33.1766 18.7698 34.6115C17.969 36.038 18.5285 37.3383 18.5285 37.3383C18.5285 37.3383 17.9692 37.5304 17.5271 38.4658C17.0936 39.3903 16.2267 39.8322 14.6658 40.1334C13.1156 40.4515 13.1156 41.4509 13.4893 42.5698C13.865 43.6865 13.4893 44.3121 13.0558 45.7385C12.6224 47.1647 14.7918 47.5981 16.9099 47.848ZM38.839 41.3417C39.9472 41.8264 41.5401 41.1516 42.0248 40.6669C42.5074 40.1844 42.849 39.4669 42.849 39.4669C42.849 39.4669 43.3337 39.7082 43.2846 40.4747C43.2333 41.2519 43.6177 42.3601 44.3436 42.7445C45.0696 43.1267 46.1778 43.6604 45.6034 44.1943C45.0183 44.7281 41.7813 46.0306 40.8141 47.047C39.8554 48.0569 38.5956 48.8833 37.829 48.6399C37.054 48.3986 36.377 47.3395 36.7102 45.7893C37.054 44.2456 37.3444 42.5522 37.2952 41.585C37.2441 40.6178 37.054 39.3153 37.2952 39.123C37.5365 38.9329 37.9209 39.0247 37.9209 39.0247C37.9209 39.0247 37.7285 40.8593 38.839 41.3417ZM31.6475 15.2105C32.7151 15.2105 33.5756 16.2696 33.5756 17.5721C33.5756 18.4966 33.1421 19.2974 32.5079 19.6818C32.3478 19.6156 32.1812 19.5408 31.9976 19.4639C32.382 19.2739 32.6488 18.7892 32.6488 18.2297C32.6488 17.4974 32.1984 16.8952 31.6324 16.8952C31.0815 16.8952 30.6224 17.4973 30.6224 18.2297C30.6224 18.4968 30.6886 18.7636 30.7975 18.9728C30.4644 18.8382 30.1633 18.723 29.922 18.6312C29.7961 18.313 29.7213 17.9543 29.7213 17.5722C29.7214 16.2697 30.5797 15.2105 31.6475 15.2105ZM29.0039 19.2804C29.5293 19.3722 30.9726 19.9978 31.5065 20.19C32.0404 20.3736 32.6318 20.7152 32.5741 21.0569C32.5079 21.4091 32.2325 21.4091 31.5065 21.8512C30.7891 22.2847 29.2218 23.2519 28.72 23.3181C28.2203 23.3842 27.9364 23.1023 27.4024 22.7586C26.8686 22.4084 25.8673 21.5906 26.1191 21.1572C26.1191 21.1572 26.9027 20.5572 27.2445 20.2498C27.5862 19.9316 28.4701 19.1821 29.0039 19.2804ZM26.7021 15.5864C27.5434 15.5864 28.2288 16.5878 28.2288 17.822C28.2288 18.0462 28.2032 18.2554 28.1627 18.4646C27.9534 18.5308 27.7443 18.6397 27.5434 18.8149C27.4452 18.8982 27.3533 18.9728 27.2701 19.0561C27.4024 18.8063 27.4537 18.4476 27.3939 18.0717C27.2786 17.4056 26.8281 16.9124 26.386 16.9785C25.9419 17.0533 25.6771 17.664 25.7839 18.3388C25.9013 19.0221 26.3432 19.5152 26.7938 19.4405C26.8194 19.432 26.8429 19.4235 26.8686 19.4149C26.653 19.6241 26.4522 19.8077 26.2429 19.9572C25.6344 19.6731 25.1839 18.8234 25.1839 17.822C25.184 16.5793 25.8587 15.5864 26.7021 15.5864ZM22.0153 31.7417C22.8822 30.3752 23.4415 27.3879 24.3085 26.395C25.184 25.4043 25.8587 23.2926 25.5512 22.3595C25.5512 22.3595 27.4196 24.595 28.72 24.2278C30.0225 23.8519 32.95 21.6762 33.3834 22.0499C33.8169 22.4256 37.545 30.625 37.9208 33.2364C38.2966 35.8457 37.671 37.8401 37.671 37.8401C37.671 37.8401 36.2447 37.4642 36.061 38.3312C35.8773 39.2066 35.8773 42.3775 35.8773 42.3775C35.8773 42.3775 33.9492 45.0466 30.9641 45.4885C27.9789 45.922 26.4842 45.6059 26.4842 45.6059L24.808 43.6863C24.808 43.6863 26.1106 43.4942 25.9269 42.1853C25.7432 40.8849 21.9467 39.0827 21.2634 37.4641C20.5803 35.8456 21.1377 33.1103 22.0153 31.7417ZM14.6337 41.534C14.7831 40.8934 16.7176 40.8934 17.4607 40.4429C18.2038 39.9924 18.3532 38.6984 18.9533 38.3568C19.5446 38.0066 20.638 39.2494 21.0885 39.9496C21.5306 40.6329 23.2239 43.6202 23.9157 44.3632C24.616 45.1126 25.2588 46.1055 25.058 46.9981C24.8681 47.8905 23.8154 48.5418 23.8154 48.5418C22.8738 48.8322 20.2474 47.6984 19.0539 47.1987C17.8603 46.697 14.8239 46.5474 14.4332 46.1055C14.0318 45.655 14.6253 44.6621 14.7833 43.7204C14.9241 42.7681 14.4822 42.1766 14.6337 41.534Z" fill="white"/>
</svg>
