<svg width="60" height="60" viewBox="0 0 60 60" fill="none" xmlns="http://www.w3.org/2000/svg">
<path d="M41.8059 31.6662C41.7876 28.3069 43.3071 25.7714 46.3826 23.9041C44.6618 21.4418 42.0622 20.0871 38.6297 19.8217C35.3802 19.5654 31.8286 21.7164 30.5289 21.7164C29.1558 21.7164 26.0071 19.9132 23.5356 19.9132C18.428 19.9956 13 23.9865 13 32.1056C13 34.5038 13.4394 36.9813 14.3181 39.5382C15.4897 42.8975 19.7186 51.1356 24.1306 50.9983C26.4373 50.9434 28.0666 49.3598 31.0689 49.3598C33.9797 49.3598 35.49 50.9983 38.0621 50.9983C42.5107 50.9342 46.3369 43.4467 47.4536 40.0782C41.4855 37.2681 41.8059 31.8401 41.8059 31.6662ZM36.6251 16.6363C39.1239 13.6705 38.8951 10.9703 38.8219 10C36.6159 10.1281 34.0621 11.5012 32.6067 13.1946C31.0048 15.0069 30.062 17.2495 30.2634 19.7759C32.6525 19.959 34.831 18.7324 36.6251 16.6363Z" fill="white"/>
</svg>
