<svg width="54" height="54" viewBox="0 0 54 54" fill="none" xmlns="http://www.w3.org/2000/svg">
<path d="M9.14307 44.6426H44.8573V8.92834H9.14307V44.6426Z" fill="white"/>
<path d="M30.4171 38.4127C31.3894 40.3572 33.4132 41.8453 36.5282 41.8453L36.5481 41.8651C39.7227 41.8651 42.1036 40.1984 42.1036 37.1826C42.1036 34.3651 40.4965 33.1349 37.6393 31.9048L36.806 31.5476C35.3576 30.9127 34.7425 30.5159 34.7425 29.504C34.7425 28.6905 35.3774 28.0754 36.3497 28.0754C37.3219 28.0754 37.937 28.4722 38.5124 29.504L41.1314 27.8175C40.0401 25.873 38.5124 25.1389 36.3695 25.1389C33.3735 25.1389 31.4489 27.0635 31.4489 29.5834C31.4489 32.3215 33.056 33.6111 35.4766 34.6429L36.31 35C37.8378 35.6548 38.7505 36.0715 38.7505 37.2222C38.7505 38.1746 37.8576 38.8691 36.4687 38.8691C34.802 38.8691 33.8695 37.9961 33.1552 36.8254L30.4171 38.4127Z" fill="black"/>
<path d="M23.5719 41.8453C26.5481 41.8453 28.5917 40.258 28.5917 36.7857V25.3373H25.2386V36.7461C25.2386 38.4127 24.5838 38.8492 23.433 38.8492C22.2822 38.8492 21.806 38.0556 21.2703 37.123L18.5322 38.7699C19.3259 40.4564 20.8933 41.8453 23.5719 41.8453Z" fill="black"/>
</svg>
