<svg width="60" height="60" viewBox="0 0 60 60" fill="none" xmlns="http://www.w3.org/2000/svg">
<path fill-rule="evenodd" clip-rule="evenodd" d="M42.4374 23.3431C47.7782 24.9893 51.2812 27.631 51.2812 30.4258V30.4449C51.2812 33.2206 47.7973 35.8622 42.4757 37.5085C43.72 42.9449 43.184 47.2711 40.7721 48.6685C40.2169 48.9939 39.5661 49.1471 38.8387 49.1471C36.4841 49.1471 33.3831 47.4817 30.2629 44.572C27.1426 47.4817 24.0416 49.1662 21.6871 49.1662C20.9596 49.1662 20.3088 49.0131 19.7537 48.6876C17.3226 47.2902 16.7675 42.9449 18.0117 37.4893C12.671 35.8431 9.16791 33.1823 9.16791 30.4066C9.16791 27.631 12.6518 24.9893 17.9926 23.3431C16.7483 17.9066 17.2843 13.5804 19.6962 12.183C20.2514 11.8576 20.9022 11.7045 21.6296 11.7045C23.9841 11.7045 27.0852 13.3507 30.2054 16.2604C33.3448 13.3316 36.4267 11.6662 38.7812 11.6662C39.4895 11.6662 40.1404 11.8193 40.6955 12.1448C43.1266 13.5422 43.6817 17.8875 42.4374 23.3431ZM39.7575 13.8293C39.4587 13.6662 39.1214 13.5868 38.7812 13.5996H38.7621C36.9818 13.5996 34.3593 15.0161 31.5645 17.6195C32.7897 18.8829 33.9765 20.3186 35.1442 21.9074C37.0776 22.118 38.9152 22.4242 40.5998 22.8454C40.7912 21.984 40.9443 21.1226 41.04 20.3186C41.4229 17.0452 40.9252 14.4993 39.7575 13.8293ZM23.8693 36.8385C23.4482 36.1876 23.027 35.5177 22.625 34.8285L22.6442 34.8477C22.2422 34.1585 21.8593 33.4694 21.5148 32.7803C21.0554 33.9288 20.6725 35.0582 20.3471 36.1685C21.4765 36.4365 22.6442 36.6662 23.8693 36.8385ZM23.8501 24.0322C22.625 24.2045 21.4382 24.4342 20.3088 24.7022V24.7213C20.6342 25.8316 21.0362 26.9801 21.4956 28.1287C21.8402 27.4396 22.2039 26.7504 22.6059 26.0613C23.0079 25.3722 23.429 24.7022 23.8501 24.0322ZM24.2713 27.0184C23.6204 28.1478 23.027 29.2964 22.491 30.4449C23.027 31.5935 23.6204 32.7229 24.2713 33.8523C24.9413 35.0008 25.6495 36.0919 26.3578 37.1065C28.9368 37.3387 31.5315 37.3387 34.1105 37.1065C34.8188 36.0919 35.5079 35.0008 36.1779 33.8331C36.8287 32.7037 37.4221 31.5552 37.9581 30.4066C37.4221 29.2581 36.8287 28.1287 36.1779 26.9993C35.5079 25.8507 34.7996 24.7596 34.0913 23.7451C31.5123 23.5128 28.9177 23.5128 26.3387 23.7451C25.6304 24.7596 24.9413 25.8507 24.2713 27.0184ZM38.9344 32.7229C38.5898 33.412 38.2261 34.1011 37.8241 34.7902C37.4221 35.4794 37.001 36.1494 36.5799 36.8193C37.805 36.6279 38.9918 36.3982 40.1212 36.1302C39.7796 34.9763 39.3836 33.8393 38.9344 32.7229ZM36.5799 24.0131C37.001 24.6639 37.4221 25.3339 37.8241 26.023L37.805 26.0039C38.207 26.693 38.5898 27.3821 38.9344 28.0713C39.3938 26.9227 39.7766 25.7933 40.1021 24.683C38.9727 24.4151 37.805 24.1853 36.5799 24.0131ZM30.2246 21.6394C31.0094 21.6394 31.8134 21.6585 32.5791 21.6968C31.7751 20.7014 30.9903 19.7826 30.1863 18.9595C29.4014 19.7826 28.5975 20.7014 27.8318 21.6968C28.6166 21.6394 29.4397 21.6394 30.2246 21.6394ZM21.6488 13.6187C21.2468 13.6187 20.9022 13.6953 20.6534 13.8484H20.6725C19.524 14.5376 19.0263 17.0835 19.4282 20.3569C19.524 21.1608 19.6771 21.984 19.8685 22.8454C21.5531 22.4242 23.3907 22.118 25.3241 21.9074C26.4535 20.3186 27.6595 18.8829 28.8655 17.6195C26.0515 15.0353 23.429 13.6187 21.6488 13.6187ZM18.4711 35.6459C17.6365 35.3779 16.8191 35.0946 16.0783 34.7711C13.0347 33.4694 11.0822 31.7657 11.0822 30.4258C11.0822 29.0858 13.0538 27.363 16.0783 26.0804C16.8249 25.755 17.6289 25.487 18.452 25.219C18.9497 26.9036 19.5814 28.6455 20.3854 30.4449C19.6005 32.2232 18.9688 33.9633 18.4711 35.6459ZM20.6916 47.0414C20.9596 47.1945 21.2851 47.2711 21.6679 47.2711C23.4673 47.2711 26.0898 45.8546 28.8846 43.2512C27.6595 41.9878 26.4727 40.5521 25.305 38.9633C23.3716 38.7527 21.5339 38.4464 19.8494 38.0253C19.658 38.8867 19.5048 39.7481 19.4091 40.5521C19.0263 43.8255 19.524 46.3714 20.6916 47.0414ZM27.8509 39.1547C28.6549 40.1501 29.4397 41.069 30.2437 41.8921C31.0286 41.069 31.8325 40.1501 32.5982 39.1547C31.8134 39.2121 30.9903 39.2121 30.2054 39.2121C29.4206 39.2121 28.6166 39.193 27.8509 39.1547ZM38.8195 47.2328C39.2215 47.2328 39.5661 47.1562 39.8149 47.0031H39.7958C40.9443 46.314 41.442 43.768 41.04 40.4947C40.9443 39.7098 40.7912 38.8676 40.5998 38.0062C38.9152 38.4273 37.0776 38.7336 35.1442 38.9441C34.0148 40.533 32.8088 41.9687 31.6028 43.2321C34.4168 45.8163 37.0393 47.2328 38.8195 47.2328ZM41.9972 35.6325C42.8203 35.3645 43.6243 35.0965 44.3708 34.7711C47.4145 33.4886 49.3861 31.7657 49.3861 30.4258C49.3861 29.0858 47.4336 27.3821 44.39 26.0804C43.6434 25.755 42.8203 25.4679 41.978 25.1999C41.4803 26.8844 40.8486 28.6264 40.0638 30.4066C40.8678 32.206 41.4995 33.948 41.9972 35.6325ZM34.1488 30.4258C34.1488 32.5889 32.3877 34.35 30.2246 34.35C28.0615 34.35 26.3004 32.5889 26.3004 30.4258C26.3004 28.2627 28.0615 26.5016 30.2246 26.5016C32.3877 26.5016 34.1488 28.2627 34.1488 30.4258Z" fill="white"/>
</svg>
