<svg width="60" height="60" viewBox="0 0 60 60" fill="none" xmlns="http://www.w3.org/2000/svg">
<path d="M48.0392 31.1765L49.9999 30L48.0392 28.8235V31.1765Z" fill="white"/>
<path d="M47.463 34.6731L49.6156 33.9018L47.9221 32.3654L47.463 34.6731Z" fill="white"/>
<path d="M46.2158 37.9902L48.4775 37.6537L47.1162 35.8164L46.2158 37.9902Z" fill="white"/>
<path d="M44.3454 41.0003L46.6293 41.1114L45.6526 39.0439L44.3454 41.0003Z" fill="white"/>
<path d="M41.9237 43.5875L44.1421 44.1421L43.5875 41.9238L41.9237 43.5875Z" fill="white"/>
<path d="M39.0438 45.6527L41.1113 46.6294L41.0002 44.3454L39.0438 45.6527Z" fill="white"/>
<path d="M35.8163 47.1163L37.6536 48.4776L37.9902 46.2158L35.8163 47.1163Z" fill="white"/>
<path d="M32.3654 47.9221L33.9017 49.6157L34.6731 47.4631L32.3654 47.9221Z" fill="white"/>
<path d="M28.8235 48.0392L29.9999 50L31.1764 48.0392H28.8235Z" fill="white"/>
<path d="M25.3268 47.4631L26.0981 49.6157L27.6345 47.9221L25.3268 47.4631Z" fill="white"/>
<path d="M22.0097 46.2158L22.3463 48.4776L24.1835 47.1163L22.0097 46.2158Z" fill="white"/>
<path d="M18.9997 44.3454L18.8885 46.6294L20.9561 45.6527L18.9997 44.3454Z" fill="white"/>
<path d="M16.4124 41.9238L15.8578 44.1421L18.0762 43.5875L16.4124 41.9238Z" fill="white"/>
<path d="M14.3473 39.0439L13.3705 41.1114L15.6545 41.0003L14.3473 39.0439Z" fill="white"/>
<path d="M12.8837 35.8164L11.5223 37.6537L13.7841 37.9902L12.8837 35.8164Z" fill="white"/>
<path d="M12.0778 32.3654L10.3842 33.9018L12.5369 34.6731L12.0778 32.3654Z" fill="white"/>
<path d="M11.9607 28.8235L9.99994 30L11.9607 31.1765V28.8235Z" fill="white"/>
<path d="M12.5369 25.3269L10.3842 26.0982L12.0778 27.6346L12.5369 25.3269Z" fill="white"/>
<path d="M13.7841 22.0098L11.5223 22.3463L12.8837 24.1836L13.7841 22.0098Z" fill="white"/>
<path d="M15.6545 18.9997L13.3705 18.8886L14.3473 20.9561L15.6545 18.9997Z" fill="white"/>
<path d="M18.0762 16.4125L15.8578 15.8579L16.4124 18.0762L18.0762 16.4125Z" fill="white"/>
<path d="M20.9561 14.3473L18.8885 13.3706L18.9997 15.6546L20.9561 14.3473Z" fill="white"/>
<path d="M24.1835 12.8837L22.3463 11.5224L22.0097 13.7842L24.1835 12.8837Z" fill="white"/>
<path d="M27.6345 12.0779L26.0981 10.3843L25.3268 12.5369L27.6345 12.0779Z" fill="white"/>
<path d="M31.1764 11.9608L29.9999 10L28.8235 11.9608H31.1764Z" fill="white"/>
<path d="M34.6731 12.5369L33.9017 10.3843L32.3654 12.0779L34.6731 12.5369Z" fill="white"/>
<path d="M37.9902 13.7842L37.6536 11.5224L35.8163 12.8837L37.9902 13.7842Z" fill="white"/>
<path d="M41.0002 15.6546L41.1113 13.3706L39.0438 14.3473L41.0002 15.6546Z" fill="white"/>
<path d="M43.5875 18.0762L44.1421 15.8579L41.9237 16.4125L43.5875 18.0762Z" fill="white"/>
<path d="M45.6526 20.9561L46.6293 18.8886L44.3454 18.9997L45.6526 20.9561Z" fill="white"/>
<path d="M47.1162 24.1836L48.4775 22.3463L46.2158 22.0098L47.1162 24.1836Z" fill="white"/>
<path d="M47.9221 27.6346L49.6156 26.0982L47.463 25.3269L47.9221 27.6346Z" fill="white"/>
<path d="M27.2548 13.5294L29.9999 16.2745L32.745 13.5294H27.2548Z" fill="white"/>
<path d="M44.8161 22.2996L43.0537 25.7586L46.5127 27.5211L44.8161 22.2996Z" fill="white"/>
<path d="M41.9019 41.7115L38.0676 41.1042L37.4603 44.9385L41.9019 41.7115Z" fill="white"/>
<path d="M22.5396 44.9385L21.9323 41.1042L18.0979 41.7115L22.5396 44.9385Z" fill="white"/>
<path d="M13.4872 27.5211L16.9462 25.7586L15.1838 22.2996L13.4872 27.5211Z" fill="white"/>
<path d="M48.0392 31.1765H46.8627C46.8627 31.6003 47.0907 31.9914 47.4595 32.2002C47.8283 32.4091 48.281 32.4034 48.6444 32.1853L48.0392 31.1765ZM49.9999 30L50.6052 31.0088C50.9596 30.7962 51.1764 30.4132 51.1764 30C51.1764 29.5868 50.9596 29.2038 50.6052 28.9912L49.9999 30ZM48.0392 28.8235L48.6444 27.8147C48.281 27.5966 47.8283 27.5909 47.4595 27.7998C47.0907 28.0086 46.8627 28.3997 46.8627 28.8235H48.0392ZM47.463 34.6731L46.3092 34.4436C46.2265 34.8593 46.3738 35.2874 46.6948 35.5642C47.0158 35.8409 47.4609 35.9236 47.8599 35.7807L47.463 34.6731ZM49.6156 33.9018L50.0125 35.0093C50.4015 34.8699 50.6889 34.5366 50.7695 34.1313C50.8501 33.726 50.7122 33.3081 50.4061 33.0305L49.6156 33.9018ZM47.9221 32.3654L48.7125 31.4941C48.3986 31.2093 47.9558 31.1154 47.5533 31.2482C47.1508 31.3811 46.8509 31.7202 46.7682 32.1359L47.9221 32.3654ZM46.2158 37.9902L45.1289 37.54C44.9667 37.9316 45.0276 38.3802 45.2885 38.7142C45.5493 39.0483 45.9697 39.2163 46.3889 39.1539L46.2158 37.9902ZM48.4775 37.6537L48.6507 38.8173C49.0594 38.7565 49.4063 38.4857 49.5644 38.1039C49.7226 37.7221 49.6688 37.2853 49.4228 36.9533L48.4775 37.6537ZM47.1162 35.8164L48.0615 35.116C47.8092 34.7754 47.3931 34.597 46.9725 34.6487C46.5518 34.7005 46.1915 34.9746 46.0293 35.3662L47.1162 35.8164ZM44.3454 41.0002L43.3672 40.3466C43.1317 40.6991 43.104 41.1509 43.2947 41.5294C43.4853 41.908 43.8648 42.1547 44.2882 42.1753L44.3454 41.0002ZM46.6293 41.1114L46.5721 42.2865C46.9849 42.3066 47.3779 42.1086 47.6075 41.765C47.8371 41.4214 47.8696 40.9825 47.6931 40.6089L46.6293 41.1114ZM45.6526 39.0439L46.7164 38.5413C46.5353 38.1581 46.1621 37.9019 45.7394 37.8706C45.3167 37.8393 44.9099 38.0378 44.6744 38.3902L45.6526 39.0439ZM41.9237 43.5875L41.0918 42.7557C40.7921 43.0554 40.6768 43.4931 40.7899 43.9016C40.9031 44.3101 41.2272 44.6261 41.6384 44.7289L41.9237 43.5875ZM44.1421 44.1421L43.8567 45.2835C44.2577 45.3837 44.6818 45.2662 44.974 44.974C45.2662 44.6818 45.3836 44.2577 45.2834 43.8568L44.1421 44.1421ZM43.5875 41.9238L44.7288 41.6384C44.626 41.2272 44.31 40.9031 43.9015 40.79C43.493 40.6768 43.0553 40.7922 42.7556 41.0919L43.5875 41.9238ZM39.0438 45.6527L38.3902 44.6745C38.0378 44.9099 37.8393 45.3168 37.8705 45.7395C37.9018 46.1622 38.158 46.5354 38.5413 46.7164L39.0438 45.6527ZM41.1113 46.6294L40.6088 47.6931C40.9825 47.8697 41.4214 47.8372 41.765 47.6076C42.1086 47.378 42.3065 46.985 42.2864 46.5722L41.1113 46.6294ZM41.0002 44.3454L42.1753 44.2883C42.1547 43.8649 41.9079 43.4854 41.5294 43.2947C41.1508 43.1041 40.699 43.1318 40.3466 43.3672L41.0002 44.3454ZM35.8163 47.1163L35.3661 46.0294C34.9745 46.1916 34.7005 46.5519 34.6487 46.9725C34.5969 47.3932 34.7754 47.8092 35.1159 48.0615L35.8163 47.1163ZM37.6536 48.4776L36.9532 49.4229C37.2853 49.6689 37.722 49.7227 38.1038 49.5645C38.4856 49.4064 38.7564 49.0595 38.8173 48.6507L37.6536 48.4776ZM37.9902 46.2158L39.1538 46.389C39.2162 45.9698 39.0483 45.5494 38.7142 45.2885C38.3801 45.0277 37.9315 44.9667 37.5399 45.1289L37.9902 46.2158ZM32.3654 47.9221L32.1358 46.7682C31.7201 46.8509 31.381 47.1508 31.2482 47.5533C31.1153 47.9558 31.2092 48.3987 31.494 48.7126L32.3654 47.9221ZM33.9017 49.6157L33.0304 50.4062C33.3081 50.7122 33.726 50.8502 34.1313 50.7696C34.5366 50.6889 34.8699 50.4016 35.0093 50.0126L33.9017 49.6157ZM34.6731 47.4631L35.7806 47.8599C35.9236 47.4609 35.8409 47.0159 35.5641 46.6948C35.2873 46.3738 34.8593 46.2265 34.4436 46.3092L34.6731 47.4631ZM28.8235 48.0392V46.8627C28.3996 46.8627 28.0085 47.0907 27.7997 47.4596C27.5909 47.8284 27.5966 48.2811 27.8147 48.6445L28.8235 48.0392ZM29.9999 50L28.9911 50.6053C29.2037 50.9596 29.5867 51.1765 29.9999 51.1765C30.4132 51.1765 30.7961 50.9596 31.0088 50.6053L29.9999 50ZM31.1764 48.0392L32.1852 48.6445C32.4033 48.2811 32.409 47.8284 32.2002 47.4596C31.9913 47.0907 31.6003 46.8627 31.1764 46.8627V48.0392ZM25.3268 47.4631L25.5563 46.3092C25.1406 46.2265 24.7126 46.3738 24.4358 46.6948C24.159 47.0159 24.0763 47.4609 24.2193 47.8599L25.3268 47.4631ZM26.0981 49.6157L24.9906 50.0126C25.13 50.4016 25.4633 50.6889 25.8686 50.7696C26.2739 50.8502 26.6918 50.7122 26.9695 50.4062L26.0981 49.6157ZM27.6345 47.9221L28.5059 48.7126C28.7907 48.3987 28.8846 47.9558 28.7517 47.5533C28.6188 47.1508 28.2798 46.8509 27.864 46.7682L27.6345 47.9221ZM22.0097 46.2158L22.4599 45.1289C22.0683 44.9667 21.6198 45.0277 21.2857 45.2885C20.9516 45.5494 20.7837 45.9698 20.8461 46.389L22.0097 46.2158ZM22.3463 48.4776L21.1826 48.6507C21.2434 49.0595 21.5143 49.4064 21.8961 49.5645C22.2778 49.7227 22.7146 49.6689 23.0467 49.4229L22.3463 48.4776ZM24.1835 47.1163L24.8839 48.0616C25.2245 47.8092 25.403 47.3932 25.3512 46.9725C25.2994 46.5519 25.0253 46.1916 24.6338 46.0294L24.1835 47.1163ZM18.9997 44.3454L19.6533 43.3672C19.3009 43.1318 18.849 43.1041 18.4705 43.2947C18.0919 43.4854 17.8452 43.8649 17.8246 44.2883L18.9997 44.3454ZM18.8885 46.6294L17.7135 46.5722C17.6934 46.985 17.8913 47.378 18.2349 47.6076C18.5785 47.8372 19.0174 47.8697 19.3911 47.6931L18.8885 46.6294ZM20.9561 45.6527L21.4586 46.7164C21.8418 46.5354 22.0981 46.1622 22.1294 45.7395C22.1606 45.3168 21.9621 44.91 21.6097 44.6745L20.9561 45.6527ZM16.4124 41.9238L17.2443 41.0919C16.9446 40.7922 16.5068 40.6768 16.0984 40.79C15.6899 40.9031 15.3739 41.2272 15.2711 41.6384L16.4124 41.9238ZM15.8578 44.1421L14.7165 43.8568C14.6162 44.2577 14.7337 44.6818 15.0259 44.974C15.3181 45.2662 15.7422 45.3837 16.1431 45.2835L15.8578 44.1421ZM18.0762 43.5875L18.3615 44.7289C18.7727 44.6261 19.0968 44.3101 19.21 43.9016C19.3231 43.4931 19.2078 43.0554 18.9081 42.7557L18.0762 43.5875ZM14.3473 39.0439L15.3255 38.3902C15.09 38.0378 14.6831 37.8393 14.2605 37.8706C13.8378 37.9019 13.4646 38.1581 13.2835 38.5413L14.3473 39.0439ZM13.3705 41.1114L12.3068 40.6089C12.1303 40.9825 12.1628 41.4214 12.3923 41.765C12.6219 42.1086 13.015 42.3066 13.4277 42.2865L13.3705 41.1114ZM15.6545 41.0003L15.7117 42.1753C16.135 42.1547 16.5146 41.908 16.7052 41.5294C16.8959 41.1509 16.8682 40.6991 16.6327 40.3466L15.6545 41.0003ZM12.8837 35.8164L13.9706 35.3662C13.8084 34.9746 13.4481 34.7005 13.0274 34.6487C12.6067 34.597 12.1907 34.7754 11.9384 35.116L12.8837 35.8164ZM11.5223 37.6537L10.5771 36.9533C10.3311 37.2853 10.2773 37.7221 10.4354 38.1039C10.5936 38.4857 10.9404 38.7565 11.3492 38.8173L11.5223 37.6537ZM13.7841 37.9902L13.6109 39.1539C14.0302 39.2163 14.4506 39.0483 14.7114 38.7142C14.9722 38.3802 15.0332 37.9316 14.871 37.54L13.7841 37.9902ZM12.0778 32.3654L13.2317 32.1359C13.149 31.7202 12.8491 31.3811 12.4466 31.2482C12.0441 31.1154 11.6013 31.2093 11.2874 31.4941L12.0778 32.3654ZM10.3842 33.9018L9.59376 33.0305C9.28769 33.3081 9.14975 33.726 9.23037 34.1313C9.31099 34.5366 9.59835 34.8699 9.98738 35.0093L10.3842 33.9018ZM12.5369 34.6731L12.14 35.7807C12.539 35.9236 12.9841 35.8409 13.3051 35.5642C13.6261 35.2874 13.7734 34.8593 13.6907 34.4436L12.5369 34.6731ZM11.9607 28.8235H13.1372C13.1372 28.3997 12.9092 28.0086 12.5404 27.7998C12.1715 27.5909 11.7189 27.5966 11.3554 27.8147L11.9607 28.8235ZM9.99994 30L9.39465 28.9912C9.04029 29.2038 8.82347 29.5868 8.82347 30C8.82347 30.4132 9.04029 30.7962 9.39465 31.0088L9.99994 30ZM11.9607 31.1765L11.3554 32.1853C11.7189 32.4034 12.1715 32.4091 12.5404 32.2002C12.9092 31.9914 13.1372 31.6003 13.1372 31.1765H11.9607ZM12.5369 25.3269L13.6907 25.5564C13.7734 25.1407 13.6261 24.7126 13.3051 24.4358C12.9841 24.1591 12.539 24.0764 12.14 24.2193L12.5369 25.3269ZM10.3842 26.0982L9.98739 24.9907C9.59836 25.1301 9.31099 25.4634 9.23037 25.8687C9.14975 26.274 9.28769 26.6919 9.59376 26.9695L10.3842 26.0982ZM12.0778 27.6346L11.2874 28.5059C11.6013 28.7907 12.0441 28.8846 12.4466 28.7518C12.8491 28.6189 13.149 28.2798 13.2317 27.8641L12.0778 27.6346ZM13.7841 22.0098L14.871 22.46C15.0332 22.0684 14.9722 21.6198 14.7114 21.2858C14.4506 20.9517 14.0302 20.7837 13.6109 20.8461L13.7841 22.0098ZM11.5223 22.3463L11.3492 21.1827C10.9404 21.2435 10.5936 21.5143 10.4354 21.8961C10.2773 22.2779 10.3311 22.7147 10.5771 23.0467L11.5223 22.3463ZM12.8837 24.1836L11.9384 24.884C12.1907 25.2246 12.6067 25.4031 13.0274 25.3513C13.4481 25.2995 13.8084 25.0254 13.9706 24.6338L12.8837 24.1836ZM15.6545 18.9998L16.6327 19.6534C16.8682 19.3009 16.8959 18.8491 16.7052 18.4706C16.5146 18.092 16.135 17.8453 15.7117 17.8247L15.6545 18.9998ZM13.3705 18.8886L13.4277 17.7135C13.015 17.6934 12.6219 17.8914 12.3923 18.235C12.1628 18.5786 12.1303 19.0175 12.3068 19.3911L13.3705 18.8886ZM14.3473 20.9561L13.2835 21.4587C13.4646 21.8419 13.8378 22.0981 14.2605 22.1294C14.6831 22.1607 15.09 21.9622 15.3255 21.6098L14.3473 20.9561ZM18.0762 16.4125L18.9081 17.2443C19.2078 16.9446 19.3231 16.5069 19.21 16.0984C19.0968 15.6899 18.7727 15.3739 18.3615 15.2711L18.0762 16.4125ZM15.8578 15.8579L16.1431 14.7165C15.7422 14.6163 15.3181 14.7338 15.0259 15.026C14.7337 15.3182 14.6162 15.7423 14.7165 16.1432L15.8578 15.8579ZM16.4124 18.0762L15.2711 18.3616C15.3739 18.7728 15.6899 19.0969 16.0984 19.21C16.5068 19.3232 16.9446 19.2078 17.2443 18.9081L16.4124 18.0762ZM20.9561 14.3473L21.6097 15.3255C21.9621 15.09 22.1606 14.6832 22.1293 14.2605C22.0981 13.8378 21.8418 13.4646 21.4586 13.2836L20.9561 14.3473ZM18.8885 13.3706L19.3911 12.3069C19.0174 12.1303 18.5785 12.1628 18.2349 12.3924C17.8913 12.622 17.6934 13.015 17.7135 13.4278L18.8885 13.3706ZM18.9997 15.6546L17.8246 15.7117C17.8452 16.1351 18.0919 16.5146 18.4705 16.7053C18.849 16.8959 19.3009 16.8682 19.6533 16.6328L18.9997 15.6546ZM24.1835 12.8837L24.6338 13.9706C25.0253 13.8084 25.2994 13.4481 25.3512 13.0275C25.403 12.6068 25.2245 12.1908 24.8839 11.9385L24.1835 12.8837ZM22.3463 11.5224L23.0467 10.5771C22.7146 10.3311 22.2778 10.2773 21.8961 10.4355C21.5143 10.5936 21.2434 10.9405 21.1826 11.3493L22.3463 11.5224ZM22.0097 13.7842L20.8461 13.611C20.7837 14.0302 20.9516 14.4506 21.2857 14.7115C21.6198 14.9723 22.0683 15.0333 22.4599 14.8711L22.0097 13.7842ZM27.6345 12.0779L27.864 13.2317C28.2798 13.1491 28.6188 12.8492 28.7517 12.4467C28.8846 12.0442 28.7907 11.6013 28.5059 11.2874L27.6345 12.0779ZM26.0981 10.3843L26.9695 9.59383C26.6918 9.28775 26.2739 9.14981 25.8686 9.23043C25.4633 9.31105 25.13 9.59842 24.9906 9.98745L26.0981 10.3843ZM25.3268 12.5369L24.2193 12.1401C24.0763 12.5391 24.159 12.9841 24.4358 13.3052C24.7126 13.6262 25.1406 13.7735 25.5563 13.6908L25.3268 12.5369ZM31.1764 11.9608V13.1373C31.6003 13.1373 31.9913 12.9093 32.2002 12.5404C32.409 12.1716 32.4033 11.7189 32.1852 11.3555L31.1764 11.9608ZM29.9999 10L31.0088 9.39471C30.7961 9.04035 30.4132 8.82353 29.9999 8.82353C29.5867 8.82353 29.2037 9.04035 28.9911 9.39471L29.9999 10ZM28.8235 11.9608L27.8147 11.3555C27.5966 11.7189 27.5909 12.1716 27.7997 12.5404C28.0085 12.9093 28.3996 13.1373 28.8235 13.1373V11.9608ZM34.6731 12.5369L34.4436 13.6908C34.8593 13.7735 35.2873 13.6262 35.5641 13.3052C35.8409 12.9841 35.9236 12.5391 35.7806 12.1401L34.6731 12.5369ZM33.9017 10.3843L35.0093 9.98745C34.8699 9.59842 34.5366 9.31105 34.1313 9.23043C33.726 9.14981 33.3081 9.28775 33.0304 9.59383L33.9017 10.3843ZM32.3654 12.0779L31.494 11.2874C31.2092 11.6013 31.1153 12.0442 31.2482 12.4467C31.381 12.8492 31.7201 13.1491 32.1358 13.2318L32.3654 12.0779ZM37.9902 13.7842L37.5399 14.8711C37.9315 15.0333 38.3801 14.9723 38.7142 14.7115C39.0483 14.4506 39.2162 14.0302 39.1538 13.611L37.9902 13.7842ZM37.6536 11.5224L38.8173 11.3493C38.7564 10.9405 38.4856 10.5936 38.1038 10.4355C37.722 10.2773 37.2853 10.3311 36.9532 10.5771L37.6536 11.5224ZM35.8163 12.8837L35.1159 11.9385C34.7754 12.1908 34.5969 12.6068 34.6487 13.0275C34.7005 13.4481 34.9745 13.8084 35.3661 13.9706L35.8163 12.8837ZM41.0002 15.6546L40.3466 16.6328C40.699 16.8682 41.1508 16.8959 41.5294 16.7053C41.9079 16.5146 42.1547 16.1351 42.1753 15.7117L41.0002 15.6546ZM41.1113 13.3706L42.2864 13.4278C42.3065 13.015 42.1086 12.622 41.765 12.3924C41.4214 12.1628 40.9825 12.1303 40.6088 12.3069L41.1113 13.3706ZM39.0438 14.3473L38.5413 13.2836C38.158 13.4646 37.9018 13.8378 37.8705 14.2605C37.8393 14.6832 38.0378 15.09 38.3902 15.3255L39.0438 14.3473ZM43.5875 18.0762L42.7556 18.9081C43.0553 19.2078 43.493 19.3232 43.9015 19.21C44.31 19.0969 44.626 18.7728 44.7288 18.3616L43.5875 18.0762ZM44.1421 15.8579L45.2834 16.1432C45.3836 15.7423 45.2662 15.3182 44.974 15.026C44.6818 14.7338 44.2577 14.6163 43.8567 14.7165L44.1421 15.8579ZM41.9237 16.4125L41.6384 15.2711C41.2272 15.3739 40.9031 15.6899 40.7899 16.0984C40.6768 16.5069 40.7921 16.9446 41.0918 17.2443L41.9237 16.4125ZM45.6526 20.9561L44.6744 21.6098C44.9099 21.9622 45.3167 22.1607 45.7394 22.1294C46.1621 22.0981 46.5353 21.8419 46.7164 21.4587L45.6526 20.9561ZM46.6293 18.8886L47.6931 19.3911C47.8696 19.0175 47.8371 18.5786 47.6075 18.235C47.3779 17.8914 46.9849 17.6934 46.5721 17.7135L46.6293 18.8886ZM44.3454 18.9997L44.2882 17.8247C43.8648 17.8453 43.4853 18.092 43.2947 18.4706C43.104 18.8491 43.1317 19.3009 43.3672 19.6534L44.3454 18.9997ZM47.1162 24.1836L46.0293 24.6338C46.1915 25.0254 46.5518 25.2995 46.9725 25.3513C47.3931 25.4031 47.8092 25.2246 48.0615 24.884L47.1162 24.1836ZM48.4775 22.3463L49.4228 23.0467C49.6688 22.7147 49.7226 22.2779 49.5644 21.8961C49.4063 21.5143 49.0594 21.2435 48.6507 21.1827L48.4775 22.3463ZM46.2158 22.0098L46.3889 20.8461C45.9697 20.7837 45.5493 20.9517 45.2885 21.2858C45.0276 21.6198 44.9667 22.0684 45.1289 22.46L46.2158 22.0098ZM47.9221 27.6346L46.7682 27.8641C46.8509 28.2798 47.1508 28.6189 47.5533 28.7518C47.9558 28.8846 48.3986 28.7907 48.7125 28.5059L47.9221 27.6346ZM49.6156 26.0982L50.4061 26.9695C50.7122 26.6919 50.8501 26.274 50.7695 25.8687C50.6889 25.4634 50.4015 25.1301 50.0125 24.9907L49.6156 26.0982ZM47.463 25.3269L47.8599 24.2193C47.4609 24.0764 47.0158 24.1591 46.6948 24.4358C46.3738 24.7126 46.2265 25.1407 46.3092 25.5564L47.463 25.3269ZM27.2548 13.5294V12.3529C26.779 12.3529 26.35 12.6396 26.1679 13.0792C25.9858 13.5188 26.0865 14.0248 26.423 14.3613L27.2548 13.5294ZM29.9999 16.2745L29.168 17.1064C29.6275 17.5658 30.3724 17.5658 30.8318 17.1064L29.9999 16.2745ZM32.745 13.5294L33.5769 14.3613C33.9134 14.0248 34.014 13.5188 33.832 13.0792C33.6499 12.6396 33.2209 12.3529 32.745 12.3529V13.5294ZM44.8161 22.2996L45.935 21.936C45.788 21.4835 45.3828 21.1641 44.9084 21.1267C44.434 21.0894 43.9839 21.3415 43.7679 21.7655L44.8161 22.2996ZM43.0537 25.7586L42.0054 25.2245C41.7104 25.8034 41.9406 26.5119 42.5196 26.8068L43.0537 25.7586ZM46.5127 27.5211L45.9786 28.5693C46.4025 28.7853 46.9149 28.7247 47.2767 28.4156C47.6386 28.1066 47.7786 27.6101 47.6316 27.1575L46.5127 27.5211ZM41.9019 41.7115L42.5935 42.6632C42.9784 42.3836 43.157 41.8995 43.0459 41.4368C42.9348 40.9741 42.556 40.6239 42.086 40.5495L41.9019 41.7115ZM38.0676 41.1042L38.2516 39.9422C37.9434 39.8934 37.6285 39.969 37.3761 40.1524C37.1236 40.3358 36.9544 40.6119 36.9056 40.9201L38.0676 41.1042ZM37.4603 44.9385L36.2983 44.7545C36.2239 45.2245 36.4399 45.693 36.8456 45.9416C37.2513 46.1902 37.7668 46.17 38.1518 45.8903L37.4603 44.9385ZM22.5396 44.9385L21.8481 45.8903C22.2331 46.17 22.7486 46.1902 23.1543 45.9416C23.56 45.693 23.776 45.2245 23.7016 44.7545L22.5396 44.9385ZM21.9323 41.1042L23.0943 40.9201C23.0455 40.6119 22.8762 40.3358 22.6238 40.1524C22.3714 39.969 22.0564 39.8934 21.7483 39.9422L21.9323 41.1042ZM18.0979 41.7115L17.9139 40.5495C17.4439 40.6239 17.0651 40.9741 16.954 41.4368C16.8429 41.8995 17.0215 42.3836 17.4064 42.6632L18.0979 41.7115ZM13.4872 27.5211L12.3683 27.1575C12.2213 27.6101 12.3613 28.1066 12.7231 28.4156C13.085 28.7247 13.5973 28.7853 14.0213 28.5693L13.4872 27.5211ZM16.9462 25.7586L17.4803 26.8068C17.7583 26.6652 17.9687 26.4189 18.0651 26.1221C18.1615 25.8254 18.1361 25.5025 17.9945 25.2245L16.9462 25.7586ZM15.1838 22.2996L16.232 21.7655C16.016 21.3415 15.5658 21.0894 15.0915 21.1267C14.6171 21.1641 14.2119 21.4835 14.0649 21.936L15.1838 22.2996ZM46.8627 30H45.6862C45.6862 38.6633 38.6632 45.6863 29.9999 45.6863V46.8627V48.0392C39.9627 48.0392 48.0392 39.9628 48.0392 30H46.8627ZM29.9999 46.8627V45.6863C21.3366 45.6863 14.3137 38.6633 14.3137 30H13.1372H11.9607C11.9607 39.9628 20.0372 48.0392 29.9999 48.0392V46.8627ZM13.1372 30H14.3137C14.3137 21.3367 21.3366 14.3137 29.9999 14.3137V13.1373V11.9608C20.0372 11.9608 11.9607 20.0372 11.9607 30H13.1372ZM29.9999 13.1373V14.3137C38.6632 14.3137 45.6862 21.3367 45.6862 30H46.8627H48.0392C48.0392 20.0372 39.9627 11.9608 29.9999 11.9608V13.1373ZM48.0392 31.1765L48.6444 32.1853L50.6052 31.0088L49.9999 30L49.3946 28.9912L47.4339 30.1677L48.0392 31.1765ZM49.9999 30L50.6052 28.9912L48.6444 27.8147L48.0392 28.8235L47.4339 29.8323L49.3946 31.0088L49.9999 30ZM48.0392 28.8235H46.8627V31.1765H48.0392H49.2156V28.8235H48.0392ZM47.463 34.6731L47.8599 35.7807L50.0125 35.0093L49.6156 33.9018L49.2188 32.7943L47.0662 33.5656L47.463 34.6731ZM49.6156 33.9018L50.4061 33.0305L48.7125 31.4941L47.9221 32.3654L47.1316 33.2368L48.8252 34.7732L49.6156 33.9018ZM47.9221 32.3654L46.7682 32.1359L46.3092 34.4436L47.463 34.6731L48.6169 34.9027L49.0759 32.5949L47.9221 32.3654ZM46.2158 37.9902L46.3889 39.1539L48.6507 38.8173L48.4775 37.6537L48.3044 36.49L46.0426 36.8266L46.2158 37.9902ZM48.4775 37.6537L49.4228 36.9533L48.0615 35.116L47.1162 35.8164L46.1709 36.5168L47.5323 38.3541L48.4775 37.6537ZM47.1162 35.8164L46.0293 35.3662L45.1289 37.54L46.2158 37.9902L47.3027 38.4404L48.2031 36.2666L47.1162 35.8164ZM44.3454 41.0002L44.2882 42.1753L46.5721 42.2865L46.6293 41.1114L46.6865 39.9363L44.4026 39.8252L44.3454 41.0002ZM46.6293 41.1114L47.6931 40.6089L46.7164 38.5413L45.6526 39.0439L44.5889 39.5464L45.5656 41.6139L46.6293 41.1114ZM45.6526 39.0439L44.6744 38.3902L43.3672 40.3466L44.3454 41.0002L45.3236 41.6539L46.6308 39.6975L45.6526 39.0439ZM41.9237 43.5875L41.6384 44.7289L43.8567 45.2835L44.1421 44.1421L44.4274 43.0008L42.209 42.4462L41.9237 43.5875ZM44.1421 44.1421L45.2834 43.8568L44.7288 41.6384L43.5875 41.9238L42.4461 42.2091L43.0007 44.4275L44.1421 44.1421ZM43.5875 41.9238L42.7556 41.0919L41.0918 42.7557L41.9237 43.5875L42.7556 44.4194L44.4194 42.7557L43.5875 41.9238ZM39.0438 45.6527L38.5413 46.7164L40.6088 47.6931L41.1113 46.6294L41.6139 45.5656L39.5463 44.5889L39.0438 45.6527ZM41.1113 46.6294L42.2864 46.5722L42.1753 44.2883L41.0002 44.3454L39.8251 44.4026L39.9363 46.6866L41.1113 46.6294ZM41.0002 44.3454L40.3466 43.3672L38.3902 44.6745L39.0438 45.6527L39.6974 46.6309L41.6538 45.3236L41.0002 44.3454ZM35.8163 47.1163L35.1159 48.0615L36.9532 49.4229L37.6536 48.4776L38.354 47.5323L36.5167 46.171L35.8163 47.1163ZM37.6536 48.4776L38.8173 48.6507L39.1538 46.389L37.9902 46.2158L36.8265 46.0427L36.49 48.3044L37.6536 48.4776ZM37.9902 46.2158L37.5399 45.1289L35.3661 46.0294L35.8163 47.1163L36.2665 48.2032L38.4404 47.3028L37.9902 46.2158ZM32.3654 47.9221L31.494 48.7126L33.0304 50.4062L33.9017 49.6157L34.7731 48.8252L33.2367 47.1316L32.3654 47.9221ZM33.9017 49.6157L35.0093 50.0126L35.7806 47.8599L34.6731 47.4631L33.5656 47.0662L32.7942 49.2189L33.9017 49.6157ZM34.6731 47.4631L34.4436 46.3092L32.1358 46.7682L32.3654 47.9221L32.5949 49.076L34.9026 48.6169L34.6731 47.4631ZM28.8235 48.0392L27.8147 48.6445L28.9911 50.6053L29.9999 50L31.0088 49.3947L29.8323 47.4339L28.8235 48.0392ZM29.9999 50L31.0088 50.6053L32.1852 48.6445L31.1764 48.0392L30.1676 47.4339L28.9911 49.3947L29.9999 50ZM31.1764 48.0392V46.8627H28.8235V48.0392V49.2157H31.1764V48.0392ZM25.3268 47.4631L24.2193 47.8599L24.9906 50.0126L26.0981 49.6157L27.2057 49.2189L26.4343 47.0662L25.3268 47.4631ZM26.0981 49.6157L26.9695 50.4062L28.5059 48.7126L27.6345 47.9221L26.7632 47.1316L25.2268 48.8252L26.0981 49.6157ZM27.6345 47.9221L27.864 46.7682L25.5563 46.3092L25.3268 47.4631L25.0973 48.6169L27.405 49.076L27.6345 47.9221ZM22.0097 46.2158L20.8461 46.389L21.1826 48.6507L22.3463 48.4776L23.5099 48.3044L23.1734 46.0427L22.0097 46.2158ZM22.3463 48.4776L23.0467 49.4229L24.8839 48.0616L24.1835 47.1163L23.4832 46.171L21.6459 47.5323L22.3463 48.4776ZM24.1835 47.1163L24.6338 46.0294L22.4599 45.1289L22.0097 46.2158L21.5595 47.3028L23.7333 48.2032L24.1835 47.1163ZM18.9997 44.3454L17.8246 44.2883L17.7135 46.5722L18.8885 46.6294L20.0636 46.6866L20.1748 44.4026L18.9997 44.3454ZM18.8885 46.6294L19.3911 47.6931L21.4586 46.7164L20.9561 45.6527L20.4536 44.5889L18.386 45.5656L18.8885 46.6294ZM20.9561 45.6527L21.6097 44.6745L19.6533 43.3672L18.9997 44.3454L18.3461 45.3237L20.3025 46.6309L20.9561 45.6527ZM16.4124 41.9238L15.2711 41.6384L14.7165 43.8568L15.8578 44.1421L16.9991 44.4275L17.5537 42.2091L16.4124 41.9238ZM15.8578 44.1421L16.1431 45.2835L18.3615 44.7289L18.0762 43.5875L17.7908 42.4462L15.5725 43.0008L15.8578 44.1421ZM18.0762 43.5875L18.9081 42.7557L17.2443 41.0919L16.4124 41.9238L15.5805 42.7557L17.2443 44.4194L18.0762 43.5875ZM14.3473 39.0439L13.2835 38.5413L12.3068 40.6089L13.3705 41.1114L14.4343 41.6139L15.411 39.5464L14.3473 39.0439ZM13.3705 41.1114L13.4277 42.2865L15.7117 42.1753L15.6545 41.0003L15.5973 39.8252L13.3134 39.9363L13.3705 41.1114ZM15.6545 41.0003L16.6327 40.3466L15.3255 38.3902L14.3473 39.0439L13.3691 39.6975L14.6763 41.6539L15.6545 41.0003ZM12.8837 35.8164L11.9384 35.116L10.5771 36.9533L11.5223 37.6537L12.4676 38.3541L13.8289 36.5168L12.8837 35.8164ZM11.5223 37.6537L11.3492 38.8173L13.6109 39.1539L13.7841 37.9902L13.9573 36.8266L11.6955 36.49L11.5223 37.6537ZM13.7841 37.9902L14.871 37.54L13.9706 35.3662L12.8837 35.8164L11.7967 36.2666L12.6972 38.4404L13.7841 37.9902ZM12.0778 32.3654L11.2874 31.4941L9.59376 33.0305L10.3842 33.9018L11.1747 34.7732L12.8683 33.2368L12.0778 32.3654ZM10.3842 33.9018L9.98738 35.0093L12.14 35.7807L12.5369 34.6731L12.9337 33.5656L10.7811 32.7943L10.3842 33.9018ZM12.5369 34.6731L13.6907 34.4436L13.2317 32.1359L12.0778 32.3654L10.924 32.5949L11.383 34.9027L12.5369 34.6731ZM11.9607 28.8235L11.3554 27.8147L9.39465 28.9912L9.99994 30L10.6052 31.0088L12.566 29.8323L11.9607 28.8235ZM9.99994 30L9.39465 31.0088L11.3554 32.1853L11.9607 31.1765L12.566 30.1677L10.6052 28.9912L9.99994 30ZM11.9607 31.1765H13.1372V28.8235H11.9607H10.7843V31.1765H11.9607ZM12.5369 25.3269L12.14 24.2193L9.98739 24.9907L10.3842 26.0982L10.7811 27.2057L12.9337 26.4344L12.5369 25.3269ZM10.3842 26.0982L9.59376 26.9695L11.2874 28.5059L12.0778 27.6346L12.8683 26.7632L11.1747 25.2268L10.3842 26.0982ZM12.0778 27.6346L13.2317 27.8641L13.6907 25.5564L12.5369 25.3269L11.383 25.0973L10.924 27.4051L12.0778 27.6346ZM13.7841 22.0098L13.6109 20.8461L11.3492 21.1827L11.5223 22.3463L11.6955 23.51L13.9573 23.1734L13.7841 22.0098ZM11.5223 22.3463L10.5771 23.0467L11.9384 24.884L12.8837 24.1836L13.8289 23.4832L12.4676 21.6459L11.5223 22.3463ZM12.8837 24.1836L13.9706 24.6338L14.871 22.46L13.7841 22.0098L12.6972 21.5596L11.7967 23.7334L12.8837 24.1836ZM15.6545 18.9998L15.7117 17.8247L13.4277 17.7135L13.3705 18.8886L13.3134 20.0637L15.5973 20.1748L15.6545 18.9998ZM13.3705 18.8886L12.3068 19.3911L13.2835 21.4587L14.3473 20.9561L15.411 20.4536L14.4343 18.3861L13.3705 18.8886ZM14.3473 20.9561L15.3255 21.6098L16.6327 19.6534L15.6545 18.9998L14.6763 18.3461L13.3691 20.3025L14.3473 20.9561ZM18.0762 16.4125L18.3615 15.2711L16.1431 14.7165L15.8578 15.8579L15.5725 16.9992L17.7908 17.5538L18.0762 16.4125ZM15.8578 15.8579L14.7165 16.1432L15.2711 18.3616L16.4124 18.0762L17.5537 17.7909L16.9991 15.5725L15.8578 15.8579ZM16.4124 18.0762L17.2443 18.9081L18.9081 17.2443L18.0762 16.4125L17.2443 15.5806L15.5805 17.2443L16.4124 18.0762ZM20.9561 14.3473L21.4586 13.2836L19.3911 12.3069L18.8885 13.3706L18.386 14.4344L20.4536 15.4111L20.9561 14.3473ZM18.8885 13.3706L17.7135 13.4278L17.8246 15.7117L18.9997 15.6546L20.1748 15.5974L20.0636 13.3134L18.8885 13.3706ZM18.9997 15.6546L19.6533 16.6328L21.6097 15.3255L20.9561 14.3473L20.3025 13.3691L18.3461 14.6764L18.9997 15.6546ZM24.1835 12.8837L24.8839 11.9385L23.0467 10.5771L22.3463 11.5224L21.6459 12.4677L23.4832 13.829L24.1835 12.8837ZM22.3463 11.5224L21.1826 11.3493L20.8461 13.611L22.0097 13.7842L23.1734 13.9573L23.5099 11.6956L22.3463 11.5224ZM22.0097 13.7842L22.4599 14.8711L24.6338 13.9706L24.1835 12.8837L23.7333 11.7968L21.5595 12.6972L22.0097 13.7842ZM27.6345 12.0779L28.5059 11.2874L26.9695 9.59383L26.0981 10.3843L25.2268 11.1748L26.7632 12.8684L27.6345 12.0779ZM26.0981 10.3843L24.9906 9.98745L24.2193 12.1401L25.3268 12.5369L26.4343 12.9338L27.2057 10.7811L26.0981 10.3843ZM25.3268 12.5369L25.5563 13.6908L27.864 13.2317L27.6345 12.0779L27.405 10.924L25.0973 11.3831L25.3268 12.5369ZM31.1764 11.9608L32.1852 11.3555L31.0088 9.39471L29.9999 10L28.9911 10.6053L30.1676 12.5661L31.1764 11.9608ZM29.9999 10L28.9911 9.39471L27.8147 11.3555L28.8235 11.9608L29.8323 12.5661L31.0088 10.6053L29.9999 10ZM28.8235 11.9608V13.1373H31.1764V11.9608V10.7843H28.8235V11.9608ZM34.6731 12.5369L35.7806 12.1401L35.0093 9.98745L33.9017 10.3843L32.7942 10.7811L33.5656 12.9338L34.6731 12.5369ZM33.9017 10.3843L33.0304 9.59383L31.494 11.2874L32.3654 12.0779L33.2367 12.8684L34.7731 11.1748L33.9017 10.3843ZM32.3654 12.0779L32.1358 13.2318L34.4436 13.6908L34.6731 12.5369L34.9026 11.3831L32.5949 10.924L32.3654 12.0779ZM37.9902 13.7842L39.1538 13.611L38.8173 11.3493L37.6536 11.5224L36.49 11.6956L36.8265 13.9573L37.9902 13.7842ZM37.6536 11.5224L36.9532 10.5771L35.1159 11.9385L35.8163 12.8837L36.5167 13.829L38.354 12.4677L37.6536 11.5224ZM35.8163 12.8837L35.3661 13.9706L37.5399 14.8711L37.9902 13.7842L38.4404 12.6972L36.2665 11.7968L35.8163 12.8837ZM41.0002 15.6546L42.1753 15.7117L42.2864 13.4278L41.1113 13.3706L39.9363 13.3134L39.8251 15.5974L41.0002 15.6546ZM41.1113 13.3706L40.6088 12.3069L38.5413 13.2836L39.0438 14.3473L39.5463 15.4111L41.6139 14.4344L41.1113 13.3706ZM39.0438 14.3473L38.3902 15.3255L40.3466 16.6328L41.0002 15.6546L41.6538 14.6764L39.6974 13.3691L39.0438 14.3473ZM43.5875 18.0762L44.7288 18.3616L45.2834 16.1432L44.1421 15.8579L43.0007 15.5725L42.4461 17.7909L43.5875 18.0762ZM44.1421 15.8579L43.8567 14.7165L41.6384 15.2711L41.9237 16.4125L42.209 17.5538L44.4274 16.9992L44.1421 15.8579ZM41.9237 16.4125L41.0918 17.2443L42.7556 18.9081L43.5875 18.0762L44.4194 17.2443L42.7556 15.5806L41.9237 16.4125ZM45.6526 20.9561L46.7164 21.4587L47.6931 19.3911L46.6293 18.8886L45.5656 18.3861L44.5889 20.4536L45.6526 20.9561ZM46.6293 18.8886L46.5721 17.7135L44.2882 17.8247L44.3454 18.9997L44.4026 20.1748L46.6865 20.0637L46.6293 18.8886ZM44.3454 18.9997L43.3672 19.6534L44.6744 21.6098L45.6526 20.9561L46.6308 20.3025L45.3236 18.3461L44.3454 18.9997ZM47.1162 24.1836L48.0615 24.884L49.4228 23.0467L48.4775 22.3463L47.5323 21.6459L46.1709 23.4832L47.1162 24.1836ZM48.4775 22.3463L48.6507 21.1827L46.3889 20.8461L46.2158 22.0098L46.0426 23.1734L48.3044 23.51L48.4775 22.3463ZM46.2158 22.0098L45.1289 22.46L46.0293 24.6338L47.1162 24.1836L48.2031 23.7334L47.3027 21.5596L46.2158 22.0098ZM47.9221 27.6346L48.7125 28.5059L50.4061 26.9695L49.6156 26.0982L48.8252 25.2268L47.1316 26.7632L47.9221 27.6346ZM49.6156 26.0982L50.0125 24.9907L47.8599 24.2193L47.463 25.3269L47.0662 26.4344L49.2188 27.2057L49.6156 26.0982ZM47.463 25.3269L46.3092 25.5564L46.7682 27.8641L47.9221 27.6346L49.0759 27.4051L48.6169 25.0973L47.463 25.3269ZM27.2548 13.5294L26.423 14.3613L29.168 17.1064L29.9999 16.2745L30.8318 15.4426L28.0867 12.6975L27.2548 13.5294ZM29.9999 16.2745L30.8318 17.1064L33.5769 14.3613L32.745 13.5294L31.9131 12.6975L29.168 15.4426L29.9999 16.2745ZM32.745 13.5294V12.3529H27.2548V13.5294V14.7059H32.745V13.5294ZM44.8161 22.2996L43.7679 21.7655L42.0054 25.2245L43.0537 25.7586L44.1019 26.2927L45.8644 22.8337L44.8161 22.2996ZM43.0537 25.7586L42.5196 26.8068L45.9786 28.5693L46.5127 27.5211L47.0468 26.4728L43.5878 24.7103L43.0537 25.7586ZM46.5127 27.5211L47.6316 27.1575L45.935 21.936L44.8161 22.2996L43.6972 22.6631L45.3938 27.8846L46.5127 27.5211ZM41.9019 41.7115L42.086 40.5495L38.2516 39.9422L38.0676 41.1042L37.8835 42.2661L41.7179 42.8734L41.9019 41.7115ZM38.0676 41.1042L36.9056 40.9201L36.2983 44.7545L37.4603 44.9385L38.6223 45.1226L39.2296 41.2882L38.0676 41.1042ZM37.4603 44.9385L38.1518 45.8903L42.5935 42.6632L41.9019 41.7115L41.2104 40.7597L36.7688 43.9867L37.4603 44.9385ZM22.5396 44.9385L23.7016 44.7545L23.0943 40.9201L21.9323 41.1042L20.7703 41.2882L21.3776 45.1226L22.5396 44.9385ZM21.9323 41.1042L21.7483 39.9422L17.9139 40.5495L18.0979 41.7115L18.282 42.8734L22.1163 42.2661L21.9323 41.1042ZM18.0979 41.7115L17.4064 42.6632L21.8481 45.8903L22.5396 44.9385L23.2311 43.9867L18.7895 40.7597L18.0979 41.7115ZM13.4872 27.5211L14.0213 28.5693L17.4803 26.8068L16.9462 25.7586L16.4121 24.7103L12.9531 26.4728L13.4872 27.5211ZM16.9462 25.7586L17.9945 25.2245L16.232 21.7655L15.1838 22.2996L14.1355 22.8337L15.898 26.2927L16.9462 25.7586ZM15.1838 22.2996L14.0649 21.936L12.3683 27.1575L13.4872 27.5211L14.6061 27.8846L16.3026 22.6631L15.1838 22.2996Z" fill="white"/>
</svg>
