<svg width="60" height="60" viewBox="0 0 60 60" fill="none" xmlns="http://www.w3.org/2000/svg">
<path d="M21.6162 43.2063C29.385 44.2663 37.015 45.3087 44.7962 46.3712C42.145 41.9575 39.5625 37.6562 36.9587 33.32C31.8575 36.6075 26.8025 39.8638 21.6162 43.2063ZM46.99 18.775C46.305 19.8037 45.6187 20.8313 44.935 21.86C42.5862 25.3938 40.2375 28.9275 37.8912 32.4625C37.76 32.66 37.5912 32.8163 37.775 33.1188C40.0425 36.8625 42.2912 40.6175 44.5462 44.3688C44.9025 44.9613 45.2612 45.5512 45.7225 46.12C46.1775 37.015 46.6337 27.91 47.09 18.805C47.0562 18.795 47.0225 18.7837 46.99 18.775ZM16.04 30.4475C16.1462 30.5487 16.41 30.6062 16.5337 30.5462C18.7087 29.4775 20.8975 28.4325 23.0237 27.275C23.7175 26.8975 24.2512 26.2225 24.8487 25.6737C26.8275 23.8587 28.8037 22.04 30.7787 20.2213C30.9 20.11 31.0425 20.0013 31.115 19.8613C31.825 18.475 32.5212 17.0812 33.2437 15.6475C32.3825 15.3238 31.5675 15.0075 30.7412 14.72C30.63 14.6812 30.4525 14.7587 30.3312 14.8262C28.4187 15.8937 26.4712 16.905 24.62 18.07C23.6937 18.6525 22.9387 19.5125 22.1187 20.26C20.7962 21.4662 19.4762 22.6762 18.1737 23.9037C17.8275 24.23 17.5125 24.6013 17.2437 24.9938C16.3525 26.2913 15.4887 27.6075 14.585 28.96C15.09 29.4837 15.55 29.9838 16.0412 30.4488L16.04 30.4475ZM23.9875 28.675C22.9062 33.245 21.83 37.79 20.7187 42.4838C25.9287 39.1263 31.02 35.8463 36.0762 32.5888C32.0525 31.2863 28.0412 29.9875 23.9875 28.6763V28.675ZM45.6612 18.8187C41.2587 19.5537 36.9612 20.2725 32.6087 20.9988C34.0912 24.605 35.5437 28.1388 37.0387 31.7738C39.93 27.43 42.7637 23.1737 45.6625 18.8187H45.6612ZM24.1687 27.74C28.1337 29.0275 32.0187 30.2888 36.0175 31.5863C34.5325 27.9688 33.0987 24.4775 31.635 20.9138C29.1412 23.1938 26.6862 25.4387 24.1687 27.74ZM16.2037 33.1125C14.7975 36.4737 13.44 39.72 12.0575 43.025C14.715 42.9463 17.2912 42.87 19.955 42.7913C18.7037 39.5638 17.4775 36.4 16.2037 33.1125ZM20.0475 40.4937C20.08 40.4875 20.1125 40.4787 20.1462 40.4725C21.0937 36.53 22.0562 32.6138 23.025 28.5163C20.865 29.6388 18.805 30.7087 16.6887 31.81C17.7687 34.6175 18.9187 37.5787 20.0475 40.4937ZM44.0675 18.18C42.8062 17.8463 41.545 17.5113 40.2837 17.1788C38.47 16.7025 36.655 16.2312 34.8425 15.75C34.6162 15.69 34.4525 15.65 34.3187 15.9237C33.6787 17.2362 33.0175 18.5388 32.3675 19.8463C32.3475 19.8863 32.3512 19.9387 32.3362 20.04C36.2637 19.445 40.165 18.8537 44.065 18.2625C44.0662 18.235 44.0662 18.2075 44.0675 18.18ZM36.7512 15.195C40.1375 16.1325 43.525 17.0688 47.03 18.0388C46.44 16.3588 45.8937 14.8012 45.3312 13.1987C42.4525 13.8375 39.61 14.4675 36.7662 15.0975C36.7612 15.13 36.7562 15.1625 36.7512 15.195ZM20.92 43.9637C19.6462 43.8175 18.34 43.9525 17.0487 43.9737C15.9875 43.9925 14.9275 44.0325 13.8675 44.065C13.7575 44.0688 13.6487 44.09 13.54 44.2075C22.3087 45.0188 31.0775 45.8287 39.845 46.64C39.8512 46.6012 39.8562 46.5612 39.8625 46.5225C37.0512 46.1387 34.2412 45.755 31.43 45.3713C27.9275 44.8925 24.4312 44.3687 20.92 43.9637ZM12.23 40C13.36 37.3787 14.485 34.7538 15.62 32.135C15.7337 31.8725 15.725 31.6938 15.5025 31.4825C15.0275 31.0313 14.5875 30.5437 14.0687 30.005C13.3675 33.4675 12.6837 36.8425 12 40.2188C12.025 40.23 12.0512 40.2425 12.0762 40.255C12.1287 40.1713 12.1925 40.0913 12.2312 40.0013L12.23 40ZM34.5 14.5025C36.405 14.0113 38.3387 13.6262 40.26 13.1975C40.3837 13.17 40.5062 13.1288 40.6287 13.0938C40.6225 13.0625 40.6162 13.0312 40.61 13C37.9037 13.3638 35.1962 13.7287 32.3525 14.1112C33.1275 14.45 33.725 14.7013 34.5 14.5025Z" fill="white"/>
</svg>
