<svg width="60" height="60" viewBox="0 0 60 60" fill="none" xmlns="http://www.w3.org/2000/svg">
<path fill-rule="evenodd" clip-rule="evenodd" d="M50.0006 49.9998H10.0006V9.99976H50.0006V49.9998ZM40.6719 46.8668C37.183 46.8668 34.9163 45.2001 33.8274 43.0223L36.8941 41.2445C37.6941 42.5556 38.7386 43.5334 40.6052 43.5334C42.1608 43.5334 43.1608 42.7556 43.1608 41.689C43.1608 40.4001 42.1385 39.9334 40.4274 39.2001L39.4941 38.8001C36.783 37.6445 34.983 36.2001 34.983 33.1334C34.983 30.3112 37.1386 28.1556 40.4941 28.1556C42.8941 28.1556 44.6052 28.9779 45.8274 31.1556L42.8941 33.0445C42.2497 31.889 41.5608 31.4445 40.4719 31.4445C39.383 31.4445 38.6719 32.1334 38.6719 33.0445C38.6719 34.1779 39.3608 34.6223 40.983 35.3334L41.9163 35.7334C45.1163 37.1112 46.9163 38.489 46.9163 41.6445C46.9163 45.0223 44.2497 46.889 40.6941 46.889L40.6719 46.8668ZM31.783 41.2001C31.783 45.089 29.4941 46.8668 26.1608 46.8668C23.1608 46.8668 21.4052 45.3112 20.5164 43.4223L23.583 41.5779C24.183 42.6223 24.7164 43.5112 26.0052 43.5112C27.2941 43.5112 28.0275 43.0223 28.0275 41.1556V28.3779H31.783V41.2001Z" fill="white"/>
</svg>
