<svg width="60" height="60" viewBox="0 0 60 60" fill="none" xmlns="http://www.w3.org/2000/svg">
<path d="M30 17.4998C16.1932 17.4998 5 23.1725 5 30.1703C5 37.168 16.1932 42.8407 30 42.8407C43.8068 42.8407 55 37.168 55 30.1703C55 23.1725 43.8068 17.4998 30 17.4998ZM23.4909 32.6385C22.8954 33.1976 22.2318 33.4271 21.5023 33.6635C20.775 33.9021 19.8432 33.8544 18.7159 33.8544H16.1591L15.45 37.9453H12.4636L15.1273 24.0316H20.8727C22.6 24.0316 23.8614 24.5294 24.6545 25.4362C25.4454 26.3453 25.6841 27.6316 25.3682 29.2566C25.2478 29.9036 25.0253 30.5273 24.7091 31.1044C24.3871 31.6772 23.9759 32.1951 23.4909 32.6385ZM32.2136 33.8521L33.3909 27.9521C33.5273 27.2612 33.4773 26.7475 33.2432 26.4975C33.0113 26.2475 32.5159 26.0794 31.7568 26.0794H29.3864L27.8614 33.8521H24.8954L27.5614 20.3498H30.5273L29.8182 24.0316H32.4591C34.1182 24.0316 35.2659 24.3657 35.8954 24.9453C36.5273 25.5248 36.7159 26.318 36.4636 27.6157L35.2227 33.8544H32.2113L32.2136 33.8521ZM48.6863 29.2794C48.5659 29.9227 48.3434 30.5427 48.0272 31.1157C47.7059 31.685 47.2954 32.1991 46.8113 32.6385C46.2136 33.1976 45.5522 33.4271 44.8227 33.6635C44.0932 33.9021 43.1636 33.8544 42.0341 33.8544H39.475L38.7682 37.9453H35.7795L38.4454 24.0316H44.1909C45.9182 24.0316 47.1795 24.5294 47.9727 25.4362C48.7636 26.3453 49.0023 27.6544 48.6863 29.2771V29.2794ZM43.0591 26.0771H41.0136L39.8954 31.8066H41.7136C42.9182 31.8066 43.8159 31.6885 44.4045 31.2339C44.9954 30.7794 45.3932 30.0771 45.6 29.0157C45.7977 27.9975 45.7068 27.2021 45.3273 26.7816C44.95 26.3635 44.1932 26.0771 43.0591 26.0771ZM19.7409 26.0771H17.6954L16.5795 31.8066H18.3977C19.6023 31.8066 20.4977 31.6885 21.0886 31.2339C21.6795 30.7794 22.075 30.0771 22.2818 29.0157C22.4795 27.9975 22.3909 27.2021 22.0114 26.7816C21.6341 26.3635 20.875 26.0771 19.7409 26.0771Z" fill="white"/>
</svg>
