<svg width="60" height="60" viewBox="0 0 60 60" fill="none" xmlns="http://www.w3.org/2000/svg">
<path d="M26.7619 24.4762H31.7143C34.7619 24.4762 34.7619 27.5238 31.7143 27.5238H26.7619V24.4762ZM14.9522 38.5715H30.1905V34.381H26.7619V31.3334H30.5714C34.7619 31.3334 32.4762 38.5715 35.9048 38.5715H45.4287V31.3334H43.143V32.0953C43.143 35.1429 39.7144 34.762 39.3334 32.8572C38.9525 30.9524 37.4286 29.4286 37.0477 29.4286C42.762 26.3809 39.3334 20.2857 34.7619 20.2857H16.857V24.4762H20.6666V34.381H14.9522V38.5715Z" fill="white"/>
<path d="M34.7623 20.095C37.1303 20.0952 39.1991 21.6716 39.9402 23.6477C40.3122 24.6399 40.3512 25.7376 39.9203 26.7869C39.522 27.7563 38.7287 28.6677 37.4594 29.4147C37.5158 29.4547 37.5755 29.4998 37.6359 29.5513C37.85 29.734 38.097 29.9941 38.3417 30.3121C38.8303 30.9474 39.3222 31.8311 39.5199 32.8195C39.6879 33.6595 40.5392 34.1865 41.3708 34.1429C41.7794 34.1214 42.1705 33.961 42.4599 33.6401C42.7489 33.3194 42.9521 32.8212 42.9522 32.0956V31.3329C42.9525 31.228 43.0379 31.1432 43.1429 31.1432H45.4282C45.5333 31.1432 45.6187 31.2279 45.6189 31.3329V38.5713C45.6189 38.6765 45.5334 38.7619 45.4282 38.7619H35.9045C35.4402 38.7619 35.0613 38.6383 34.7519 38.4147C34.4451 38.193 34.2187 37.8819 34.0433 37.5249C33.6967 36.8193 33.5252 35.8838 33.3374 34.9919C33.146 34.0825 32.9367 33.2114 32.5292 32.5662C32.3279 32.2475 32.0812 31.9895 31.7683 31.8101C31.4559 31.6309 31.0665 31.5236 30.5711 31.5236H26.952V34.1903H30.1907C30.2958 34.1904 30.3814 34.2759 30.3814 34.381V38.5713C30.3814 38.6764 30.2958 38.7618 30.1907 38.7619H14.9522C14.847 38.7619 14.7615 38.6765 14.7615 38.5713V34.381C14.7616 34.2758 14.847 34.1903 14.9522 34.1903H20.4763V24.6666H16.8572C16.752 24.6666 16.6665 24.5811 16.6665 24.4759V20.2857C16.6665 20.1805 16.752 20.095 16.8572 20.095H34.7623ZM31.7143 24.2852C33.2889 24.2852 34.1903 25.0861 34.1903 26.0004C34.19 26.9145 33.2886 27.7147 31.7143 27.7147H26.7622C26.6571 27.7147 26.5716 27.6291 26.5715 27.524V24.4759C26.5717 24.3708 26.6571 24.2852 26.7622 24.2852H31.7143ZM26.952 27.3333H31.7143C33.1869 27.3333 33.8096 26.6099 33.8099 26.0004C33.8099 25.3909 33.1873 24.6666 31.7143 24.6666H26.952V27.3333ZM43.3336 32.0956C43.3335 32.8934 43.1081 33.4898 42.7426 33.8953C42.3772 34.3005 41.8868 34.4972 41.3907 34.5233C40.4129 34.5746 39.36 33.9589 39.1471 32.8944C38.9639 31.9782 38.5037 31.1473 38.04 30.5446C37.8085 30.2436 37.5788 30.0041 37.3883 29.8416C37.2927 29.7601 37.2101 29.701 37.1445 29.6633C37.0719 29.6215 37.0431 29.6187 37.0477 29.6187C36.9603 29.6187 36.8839 29.5593 36.8627 29.4745C36.8417 29.3898 36.8807 29.3012 36.9576 29.2601C38.3556 28.5144 39.1778 27.5926 39.5683 26.6417C39.9586 25.6913 39.9256 24.6939 39.5835 23.7815C38.8961 21.9483 36.9655 20.4765 34.7623 20.4763H17.0478V24.2852H20.667C20.7719 24.2855 20.8566 24.371 20.8568 24.4759V34.381C20.8568 34.486 20.772 34.5714 20.667 34.5717H15.1429V38.3815H30V34.5717H26.7622C26.657 34.5717 26.5715 34.4862 26.5715 34.381V31.3329C26.5718 31.2279 26.6572 31.1432 26.7622 31.1432H30.5711C31.1234 31.1432 31.5801 31.2623 31.9581 31.479C32.3355 31.6954 32.6245 32.0025 32.8517 32.3622C33.3014 33.0742 33.5208 34.0131 33.7103 34.9132C33.9035 35.8308 34.0657 36.7054 34.3857 37.357C34.5436 37.6782 34.7342 37.9325 34.9749 38.1064C35.2129 38.2784 35.5122 38.3815 35.9045 38.3815H45.2385V31.5236H43.3336V32.0956Z" fill="white"/>
<path d="M44.6669 29.9996C44.6667 21.8996 38.0997 15.3332 29.9996 15.3332C21.8996 15.3334 15.3334 21.8997 15.3331 29.9996C15.3331 38.0997 21.8995 44.6668 29.9996 44.667C38.0998 44.667 44.6669 38.0999 44.6669 29.9996ZM48.0954 29.9996C48.0954 39.9934 39.9934 48.0955 29.9996 48.0955C20.0059 48.0953 11.9046 39.9933 11.9046 29.9996C11.9049 20.0061 20.0061 11.9049 29.9996 11.9047C39.9932 11.9047 48.0952 20.006 48.0954 29.9996Z" fill="white"/>
<path d="M47.5239 31.1429L49.4287 30L47.5239 28.8572V31.1429Z" fill="white"/>
<path d="M47.2422 28.36C47.4213 28.2586 47.6415 28.2608 47.818 28.3667L49.7229 29.5098C49.895 29.6131 49.9999 29.7996 49.9999 30.0003C49.9998 30.2008 49.8948 30.3865 49.7229 30.4898L47.818 31.6329C47.6415 31.7389 47.4213 31.742 47.2422 31.6405C47.063 31.5391 46.9528 31.3484 46.9528 31.1425V28.8571C46.9528 28.6514 47.0631 28.4615 47.2422 28.36ZM48.095 30.1331L48.317 29.9993L48.095 29.8656V30.1331Z" fill="white"/>
<path d="M46.9643 34.5397L49.0554 33.7904L47.4102 32.2979L46.9643 34.5397Z" fill="white"/>
<path d="M47.2309 31.7554C47.4263 31.6909 47.6419 31.736 47.7943 31.8742L49.4396 33.3671C49.5882 33.5019 49.6548 33.7053 49.6156 33.9021C49.5764 34.0988 49.4372 34.2605 49.2485 34.3282L47.1571 35.0777C46.9633 35.1472 46.7468 35.1073 46.5909 34.9728C46.4349 34.8384 46.3641 34.6298 46.4042 34.4279L46.8501 32.1865C46.8902 31.9847 47.0355 31.82 47.2309 31.7554ZM47.7214 33.6608L47.9652 33.5729L47.7736 33.3984L47.7214 33.6608Z" fill="white"/>
<path d="M45.7526 37.762L47.9498 37.4351L46.6274 35.6503L45.7526 37.762Z" fill="white"/>
<path d="M46.5573 35.0832C46.7616 35.058 46.9642 35.1444 47.0868 35.3097L48.4092 37.0948C48.5287 37.2561 48.5542 37.4685 48.4774 37.6539C48.4006 37.8392 48.2325 37.9706 48.0342 38.0002L45.8368 38.3273C45.6332 38.3576 45.4286 38.2762 45.3019 38.114C45.1752 37.9517 45.1464 37.7333 45.2252 37.5431L46.0997 35.4317C46.1785 35.2416 46.3531 35.1084 46.5573 35.0832ZM46.6667 37.0477L46.923 37.009L46.7691 36.8005L46.6667 37.0477Z" fill="white"/>
<path d="M43.9357 40.6861L46.1544 40.794L45.2055 38.7855L43.9357 40.6861Z" fill="white"/>
<path d="M45.2475 38.2157C45.4527 38.2309 45.6346 38.3551 45.7226 38.5411L46.6714 40.5499C46.7571 40.7314 46.7407 40.9448 46.6292 41.1116C46.5177 41.2783 46.3272 41.3744 46.1269 41.3648L43.9079 41.2569C43.7023 41.2469 43.5175 41.1272 43.4249 40.9433C43.3323 40.7595 43.3467 40.5396 43.461 40.3685L44.7307 38.4683C44.845 38.2972 45.0423 38.2006 45.2475 38.2157ZM44.9715 40.1638L45.2304 40.1759L45.1202 39.9413L44.9715 40.1638Z" fill="white"/>
<path d="M41.5831 43.1995L43.7382 43.7382L43.1994 41.5832L41.5831 43.1995Z" fill="white"/>
<path d="M43.3517 41.0325C43.5501 41.0874 43.7042 41.2447 43.7542 41.4444L44.2929 43.5997C44.3415 43.7944 44.2838 44.0005 44.1419 44.1424C44.0001 44.2841 43.7945 44.3411 43.5999 44.2926L41.4446 43.754C41.2449 43.704 41.087 43.5505 41.0321 43.3521C40.9771 43.1537 41.0341 42.9409 41.1796 42.7954L42.7956 41.1794C42.9411 41.0339 43.1534 40.9776 43.3517 41.0325ZM42.701 42.8893L42.9526 42.9517L42.8902 42.7001L42.701 42.8893Z" fill="white"/>
<path d="M38.7855 45.2056L40.794 46.1545L40.686 43.9357L38.7855 45.2056Z" fill="white"/>
<path d="M40.9428 43.4253C41.1267 43.5179 41.2472 43.7022 41.2572 43.9078L41.3651 46.1268C41.3748 46.3272 41.278 46.5181 41.1112 46.6296C40.9444 46.7409 40.7316 46.7568 40.5502 46.6712L38.5414 45.7224C38.3553 45.6345 38.2304 45.4532 38.2152 45.2479C38.2 45.0425 38.2974 44.8449 38.4686 44.7306L40.3688 43.4609C40.5399 43.3466 40.759 43.3328 40.9428 43.4253ZM39.9424 45.1195L40.177 45.2298L40.1648 44.9709L39.9424 45.1195Z" fill="white"/>
<path d="M35.6502 46.6274L37.435 47.9498L37.762 45.7527L35.6502 46.6274Z" fill="white"/>
<path d="M38.1134 45.3022C38.2756 45.4288 38.3579 45.6332 38.3276 45.8367L38.0005 48.0341C37.9709 48.2326 37.8388 48.4009 37.6534 48.4777C37.4681 48.5544 37.2563 48.5284 37.0951 48.4091L35.31 47.0867C35.1446 46.9641 35.0575 46.7619 35.0826 46.5576C35.1078 46.3532 35.2418 46.1784 35.432 46.0997L37.5434 45.2251C37.7335 45.1463 37.9511 45.1756 38.1134 45.3022ZM36.8017 46.7686L37.0102 46.9225L37.0488 46.6663L36.8017 46.7686Z" fill="white"/>
<path d="M32.2978 47.4102L33.7903 49.0555L34.5396 46.9643L32.2978 47.4102Z" fill="white"/>
<path d="M34.9722 46.591C35.1066 46.7469 35.1474 46.9633 35.0781 47.1571L34.3285 49.2484C34.2608 49.4373 34.0983 49.5767 33.9015 49.6158C33.7048 49.6548 33.5022 49.5881 33.3674 49.4396L31.8746 47.7943C31.7362 47.6418 31.6902 47.4265 31.7548 47.231C31.8193 47.0355 31.9849 46.8902 32.1868 46.8501L34.4282 46.4042C34.6301 46.3641 34.8378 46.4352 34.9722 46.591ZM33.3996 47.7734L33.5741 47.965L33.662 47.7212L33.3996 47.7734Z" fill="white"/>
<path d="M28.8571 47.524L30 49.4288L31.1428 47.524H28.8571Z" fill="white"/>
<path d="M31.64 47.2422C31.7414 47.4213 31.7392 47.6416 31.6333 47.8181L30.4902 49.723C30.3869 49.8951 30.2004 50 29.9997 50C29.7992 49.9999 29.6135 49.8949 29.5102 49.723L28.3671 47.8181C28.2611 47.6415 28.258 47.4214 28.3595 47.2422C28.4609 47.0631 28.6516 46.9529 28.8575 46.9529H31.1429C31.3486 46.9529 31.5385 47.0632 31.64 47.2422ZM29.8669 48.0951L30.0007 48.3171L30.1344 48.0951H29.8669Z" fill="white"/>
<path d="M25.4603 46.9643L26.2096 49.0555L27.7021 47.4103L25.4603 46.9643Z" fill="white"/>
<path d="M28.2446 47.2309C28.3091 47.4264 28.264 47.6419 28.1258 47.7944L26.6329 49.4397C26.4981 49.5883 26.2947 49.6549 26.0979 49.6157C25.9012 49.5765 25.7395 49.4372 25.6718 49.2485L24.9223 47.1572C24.8528 46.9634 24.8927 46.7468 25.0272 46.5909C25.1616 46.435 25.3702 46.3641 25.5721 46.4043L27.8135 46.8501C28.0153 46.8903 28.18 47.0355 28.2446 47.2309ZM26.3392 47.7215L26.4271 47.9653L26.6016 47.7737L26.3392 47.7215Z" fill="white"/>
<path d="M22.2379 45.7527L22.5649 47.9498L24.3497 46.6274L22.2379 45.7527Z" fill="white"/>
<path d="M24.9168 46.5573C24.9419 46.7616 24.8556 46.9642 24.6903 47.0868L22.9052 48.4093C22.7439 48.5287 22.5315 48.5543 22.3461 48.4775C22.1608 48.4007 22.0294 48.2326 21.9998 48.0343L21.6727 45.8369C21.6424 45.6332 21.7238 45.4286 21.886 45.302C22.0483 45.1753 22.2667 45.1464 22.4569 45.2252L24.5683 46.0998C24.7584 46.1785 24.8916 46.3531 24.9168 46.5573ZM22.9523 46.6668L22.991 46.923L23.1995 46.7691L22.9523 46.6668Z" fill="white"/>
<path d="M19.3139 43.9357L19.2059 46.1544L21.2144 45.2056L19.3139 43.9357Z" fill="white"/>
<path d="M21.7843 45.2475C21.7691 45.4528 21.6449 45.6347 21.4589 45.7226L19.4501 46.6714C19.2686 46.7571 19.0552 46.7408 18.8884 46.6293C18.7217 46.5178 18.6256 46.3273 18.6352 46.127L18.7431 43.908C18.7531 43.7024 18.8728 43.5176 19.0567 43.425C19.2405 43.3324 19.4604 43.3467 19.6315 43.4611L21.5317 44.7308C21.7028 44.8451 21.7994 45.0423 21.7843 45.2475ZM19.8362 44.9716L19.8241 45.2305L20.0587 45.1202L19.8362 44.9716Z" fill="white"/>
<path d="M16.8005 41.5832L16.2618 43.7382L18.4168 43.1995L16.8005 41.5832Z" fill="white"/>
<path d="M18.9675 43.3518C18.9126 43.5501 18.7553 43.7043 18.5556 43.7543L16.4003 44.2929C16.2056 44.3416 15.9995 44.2839 15.8576 44.142C15.7159 44.0001 15.6588 43.7945 15.7074 43.6L16.246 41.4447C16.296 41.2449 16.4495 41.0871 16.6479 41.0321C16.8463 40.9772 17.0591 41.0341 17.2046 41.1797L18.8206 42.7957C18.9661 42.9412 19.0224 43.1535 18.9675 43.3518ZM17.1107 42.7011L17.0483 42.9527L17.2999 42.8903L17.1107 42.7011Z" fill="white"/>
<path d="M14.7944 38.7856L13.8455 40.7941L16.0642 40.6861L14.7944 38.7856Z" fill="white"/>
<path d="M16.5747 40.9429C16.4821 41.1267 16.2978 41.2472 16.0922 41.2573L13.8732 41.3651C13.6728 41.3748 13.4819 41.2781 13.3704 41.1112C13.2591 40.9444 13.2432 40.7317 13.3288 40.5503L14.2776 38.5415C14.3655 38.3554 14.5468 38.2305 14.7521 38.2153C14.9575 38.2001 15.1551 38.2974 15.2694 38.4686L16.5391 40.3688C16.6534 40.5399 16.6672 40.7591 16.5747 40.9429ZM14.8805 39.9425L14.7702 40.177L15.0291 40.1649L14.8805 39.9425Z" fill="white"/>
<path d="M13.3726 35.6503L12.0502 37.4351L14.2473 37.762L13.3726 35.6503Z" fill="white"/>
<path d="M14.6978 38.1134C14.5712 38.2757 14.3668 38.3579 14.1633 38.3277L11.9659 38.0005C11.7674 37.971 11.5991 37.8388 11.5223 37.6534C11.4456 37.4681 11.4716 37.2563 11.5909 37.0952L12.9133 35.31C13.0359 35.1446 13.2381 35.0575 13.4424 35.0827C13.6468 35.1078 13.8216 35.2419 13.9003 35.4321L14.7749 37.5435C14.8537 37.7336 14.8244 37.9512 14.6978 38.1134ZM13.2314 36.8017L13.0775 37.0103L13.3337 37.0489L13.2314 36.8017Z" fill="white"/>
<path d="M12.5898 32.2979L10.9445 33.7904L13.0357 34.5397L12.5898 32.2979Z" fill="white"/>
<path d="M13.409 34.9723C13.2531 35.1067 13.0367 35.1475 12.8429 35.0781L10.7516 34.3286C10.5627 34.2608 10.4233 34.0984 10.3842 33.9016C10.3452 33.7049 10.4119 33.5022 10.5604 33.3674L12.2057 31.8746C12.3582 31.7363 12.5735 31.6903 12.769 31.7548C12.9645 31.8194 13.1098 31.9849 13.1499 32.1869L13.5958 34.4283C13.6359 34.6301 13.5648 34.8379 13.409 34.9723ZM12.2266 33.3997L12.035 33.5742L12.2788 33.6621L12.2266 33.3997Z" fill="white"/>
<path d="M12.476 28.8571L10.5712 30L12.476 31.1429V28.8571Z" fill="white"/>
<path d="M12.7577 31.64C12.5786 31.7414 12.3584 31.7392 12.1819 31.6334L10.277 30.4902C10.1049 30.387 9.99994 30.2005 9.99994 29.9998C10 29.7993 10.1051 29.6135 10.277 29.5103L12.1819 28.3671C12.3584 28.2612 12.5786 28.2581 12.7577 28.3595C12.9369 28.461 13.0471 28.6517 13.0471 28.8576V31.1429C13.0471 31.3487 12.9367 31.5386 12.7577 31.64ZM11.9049 29.867L11.6829 30.0007L11.9049 30.1345V29.867Z" fill="white"/>
<path d="M13.0357 25.4604L10.9445 26.2097L12.5897 27.7022L13.0357 25.4604Z" fill="white"/>
<path d="M12.7691 28.2447C12.5736 28.3092 12.3581 28.2641 12.2056 28.1258L10.5603 26.633C10.4117 26.4981 10.3451 26.2948 10.3843 26.0979C10.4235 25.9013 10.5628 25.7396 10.7515 25.6719L12.8428 24.9223C13.0366 24.8529 13.2532 24.8928 13.4091 25.0272C13.565 25.1616 13.6359 25.3702 13.5957 25.5721L13.1499 27.8136C13.1097 28.0154 12.9645 28.1801 12.7691 28.2447ZM12.2785 26.3393L12.0347 26.4272L12.2263 26.6017L12.2785 26.3393Z" fill="white"/>
<path d="M14.2473 22.238L12.0501 22.565L13.3726 24.3498L14.2473 22.238Z" fill="white"/>
<path d="M13.4427 24.9169C13.2384 24.942 13.0358 24.8557 12.9132 24.6904L11.5907 22.9052C11.4713 22.744 11.4457 22.5315 11.5225 22.3461C11.5993 22.1609 11.7674 22.0295 11.9657 21.9999L14.1631 21.6727C14.3668 21.6424 14.5713 21.7238 14.698 21.8861C14.8247 22.0483 14.8536 22.2667 14.7748 22.4569L13.9002 24.5683C13.8215 24.7584 13.6469 24.8916 13.4427 24.9169ZM13.3332 22.9524L13.077 22.991L13.2309 23.1996L13.3332 22.9524Z" fill="white"/>
<path d="M16.0643 19.3139L13.8456 19.206L14.7944 21.2145L16.0643 19.3139Z" fill="white"/>
<path d="M14.7525 21.7844C14.5472 21.7692 14.3653 21.645 14.2774 21.4589L13.3286 19.4501C13.2429 19.2687 13.2592 19.0553 13.3707 18.8884C13.4822 18.7217 13.6727 18.6257 13.873 18.6353L16.092 18.7431C16.2976 18.7531 16.4824 18.8729 16.575 19.0567C16.6676 19.2406 16.6533 19.4604 16.5389 19.6316L15.2692 21.5318C15.1549 21.7029 14.9577 21.7995 14.7525 21.7844ZM15.0284 19.8363L14.7695 19.8242L14.8798 20.0587L15.0284 19.8363Z" fill="white"/>
<path d="M18.4168 16.8006L16.2618 16.2618L16.8005 18.4168L18.4168 16.8006Z" fill="white"/>
<path d="M16.6482 18.9676C16.4499 18.9126 16.2957 18.7553 16.2457 18.5557L15.7071 16.4004C15.6584 16.2057 15.7161 15.9996 15.858 15.8577C15.9999 15.716 16.2055 15.6589 16.4 15.7074L18.5553 16.2461C18.755 16.296 18.9129 16.4495 18.9679 16.6479C19.0228 16.8463 18.9659 17.0591 18.8203 17.2047L17.2043 18.8207C17.0588 18.9662 16.8465 19.0224 16.6482 18.9676ZM17.2989 17.1108L17.0473 17.0484L17.1097 17.2999L17.2989 17.1108Z" fill="white"/>
<path d="M21.2144 14.7944L19.2059 13.8456L19.3139 16.0643L21.2144 14.7944Z" fill="white"/>
<path d="M19.0571 16.5748C18.8733 16.4822 18.7528 16.2978 18.7427 16.0923L18.6349 13.8733C18.6252 13.6728 18.7219 13.482 18.8888 13.3705C19.0556 13.2591 19.2683 13.2433 19.4497 13.3288L21.4585 14.2776C21.6446 14.3656 21.7695 14.5469 21.7847 14.7522C21.7999 14.9575 21.7025 15.1551 21.5314 15.2695L19.6312 16.5392C19.4601 16.6535 19.2409 16.6672 19.0571 16.5748ZM20.0575 14.8806L19.823 14.7703L19.8351 15.0292L20.0575 14.8806Z" fill="white"/>
<path d="M24.3497 13.3727L22.5649 12.0502L22.238 14.2474L24.3497 13.3727Z" fill="white"/>
<path d="M21.8865 14.6979C21.7243 14.5712 21.6421 14.3669 21.6723 14.1633L21.9995 11.9659C22.029 11.7674 22.1612 11.5991 22.3466 11.5223C22.5319 11.4457 22.7437 11.4716 22.9048 11.5909L24.69 12.9134C24.8554 13.0359 24.9425 13.2382 24.9173 13.4425C24.8922 13.6468 24.7581 13.8216 24.5679 13.9004L22.4565 14.775C22.2664 14.8537 22.0488 14.8244 21.8865 14.6979ZM23.1983 13.2314L22.9897 13.0775L22.9511 13.3338L23.1983 13.2314Z" fill="white"/>
<path d="M27.7021 12.5898L26.2096 10.9446L25.4603 13.0357L27.7021 12.5898Z" fill="white"/>
<path d="M25.0277 13.409C24.8933 13.2532 24.8525 13.0367 24.9219 12.843L25.6714 10.7516C25.7392 10.5627 25.9016 10.4234 26.0984 10.3842C26.2951 10.3452 26.4978 10.412 26.6326 10.5604L28.1254 12.2057C28.2637 12.3582 28.3097 12.5735 28.2452 12.769C28.1806 12.9645 28.0151 13.1098 27.8131 13.15L25.5717 13.5958C25.3699 13.636 25.1621 13.5648 25.0277 13.409ZM26.6003 12.2267L26.4258 12.035L26.3379 12.2789L26.6003 12.2267Z" fill="white"/>
<path d="M31.1429 12.476L30 10.5712L28.8571 12.476H31.1429Z" fill="white"/>
<path d="M28.36 12.7578C28.2586 12.5787 28.2608 12.3584 28.3666 12.1819L29.5098 10.277C29.613 10.1049 29.7995 10 30.0002 10C30.2007 10.0001 30.3865 10.1051 30.4897 10.277L31.6329 12.1819C31.7388 12.3585 31.7419 12.5786 31.6405 12.7578C31.539 12.9369 31.3483 13.0471 31.1424 13.0471H28.8571C28.6513 13.0471 28.4614 12.9368 28.36 12.7578ZM30.133 11.9049L29.9993 11.6829L29.8655 11.9049H30.133Z" fill="white"/>
<path d="M34.5396 13.0357L33.7903 10.9446L32.2978 12.5898L34.5396 13.0357Z" fill="white"/>
<path d="M31.7553 12.7691C31.6908 12.5737 31.7359 12.3581 31.8742 12.2057L33.367 10.5604C33.5019 10.4117 33.7052 10.3452 33.9021 10.3844C34.0987 10.4236 34.2604 10.5628 34.3281 10.7515L35.0777 12.8429C35.1471 13.0367 35.1072 13.2532 34.9728 13.4091C34.8384 13.5651 34.6298 13.6359 34.4279 13.5958L32.1864 13.1499C31.9846 13.1098 31.8199 12.9645 31.7553 12.7691ZM33.6607 12.2786L33.5728 12.0348L33.3983 12.2264L33.6607 12.2786Z" fill="white"/>
<path d="M37.762 14.2474L37.435 12.0502L35.6502 13.3726L37.762 14.2474Z" fill="white"/>
<path d="M35.0831 13.4427C35.058 13.2384 35.1443 13.0358 35.3096 12.9132L37.0947 11.5908C37.256 11.4713 37.4685 11.4458 37.6539 11.5226C37.8391 11.5994 37.9705 11.7675 38.0001 11.9658L38.3273 14.1632C38.3576 14.3668 38.2762 14.5714 38.1139 14.6981C37.9517 14.8248 37.7333 14.8536 37.5431 14.7748L35.4317 13.9003C35.2415 13.8215 35.1084 13.6469 35.0831 13.4427ZM37.0476 13.3333L37.009 13.077L36.8004 13.2309L37.0476 13.3333Z" fill="white"/>
<path d="M40.686 16.0643L40.794 13.8456L38.7855 14.7945L40.686 16.0643Z" fill="white"/>
<path d="M38.2156 14.7525C38.2308 14.5473 38.355 14.3654 38.5411 14.2774L40.5499 13.3286C40.7313 13.2429 40.9447 13.2593 41.1116 13.3708C41.2783 13.4823 41.3743 13.6728 41.3647 13.8731L41.2569 16.0921C41.2469 16.2977 41.1271 16.4825 40.9433 16.5751C40.7594 16.6677 40.5396 16.6533 40.3684 16.539L38.4682 15.2693C38.2971 15.155 38.2005 14.9577 38.2156 14.7525ZM40.1637 15.0285L40.1758 14.7696L39.9413 14.8798L40.1637 15.0285Z" fill="white"/>
<path d="M43.1994 18.4169L43.7382 16.2618L41.5832 16.8006L43.1994 18.4169Z" fill="white"/>
<path d="M41.0324 16.6483C41.0874 16.4499 41.2446 16.2958 41.4443 16.2458L43.5996 15.7071C43.7943 15.6585 44.0004 15.7162 44.1423 15.8581C44.284 15.9999 44.3411 16.2055 44.2926 16.4001L43.7539 18.5554C43.704 18.7551 43.5505 18.913 43.3521 18.9679C43.1537 19.0229 42.9409 18.9659 42.7953 18.8204L41.1793 17.2044C41.0338 17.0589 40.9776 16.8466 41.0324 16.6483ZM42.8892 17.299L42.9516 17.0474L42.7001 17.1098L42.8892 17.299Z" fill="white"/>
<path d="M45.2056 21.2145L46.1544 19.206L43.9357 19.314L45.2056 21.2145Z" fill="white"/>
<path d="M43.4252 19.0572C43.5178 18.8733 43.7022 18.7528 43.9077 18.7428L46.1267 18.6349C46.3272 18.6252 46.518 18.722 46.6295 18.8888C46.7408 19.0556 46.7567 19.2684 46.6712 19.4498L45.7224 21.4586C45.6344 21.6447 45.4531 21.7696 45.2478 21.7848C45.0425 21.8 44.8449 21.7026 44.7305 21.5314L43.4608 19.6312C43.3465 19.4601 43.3328 19.241 43.4252 19.0572ZM45.1194 20.0576L45.2297 19.823L44.9708 19.8352L45.1194 20.0576Z" fill="white"/>
<path d="M46.6273 24.3498L47.9498 22.565L45.7526 22.238L46.6273 24.3498Z" fill="white"/>
<path d="M45.3021 21.8866C45.4288 21.7244 45.6331 21.6421 45.8367 21.6724L48.0341 21.9995C48.2326 22.0291 48.4009 22.1612 48.4777 22.3466C48.5543 22.5319 48.5284 22.7437 48.4091 22.9049L47.0866 24.69C46.9641 24.8554 46.7618 24.9425 46.5575 24.9174C46.3532 24.8922 46.1784 24.7582 46.0996 24.568L45.225 22.4566C45.1463 22.2665 45.1756 22.0489 45.3021 21.8866ZM46.7686 23.1983L46.9225 22.9898L46.6662 22.9512L46.7686 23.1983Z" fill="white"/>
<path d="M47.4102 27.7022L49.0554 26.2097L46.9643 25.4604L47.4102 27.7022Z" fill="white"/>
<path d="M46.591 25.0278C46.7468 24.8934 46.9633 24.8526 47.157 24.9219L49.2484 25.6715C49.4373 25.7392 49.5766 25.9017 49.6157 26.0985C49.6548 26.2952 49.588 26.4978 49.4396 26.6326L47.7943 28.1254C47.6418 28.2638 47.4264 28.3098 47.231 28.2452C47.0355 28.1807 46.8902 28.0151 46.85 27.8132L46.4042 25.5718C46.364 25.3699 46.4352 25.1622 46.591 25.0278ZM47.7733 26.6004L47.965 26.4259L47.7211 26.338L47.7733 26.6004Z" fill="white"/>
<path d="M27.3333 13.9999L30 16.6666L32.6667 13.9999H27.3333Z" fill="white"/>
<path d="M32.6667 12.8567C33.1289 12.8567 33.5457 13.1355 33.7226 13.5625C33.8995 13.9896 33.8018 14.4813 33.475 14.8081L30.8083 17.4749C30.362 17.9212 29.6381 17.9212 29.1917 17.4749L26.525 14.8081C26.1982 14.4813 26.1005 13.9896 26.2774 13.5625C26.4543 13.1355 26.871 12.8567 27.3333 12.8567H32.6667Z" fill="white"/>
<path d="M44.393 22.5195L42.6808 25.8798L46.0411 27.5919L44.393 22.5195Z" fill="white"/>
<path d="M47.1283 27.2386C47.2711 27.6783 47.1348 28.1607 46.7833 28.4609C46.4318 28.7611 45.934 28.8202 45.5222 28.6104L42.1619 26.8982C41.5995 26.6117 41.3758 25.9232 41.6624 25.3608L43.3745 22.0006C43.5844 21.5887 44.0218 21.3439 44.4826 21.3802C44.9435 21.4164 45.3373 21.7266 45.4802 22.1663L47.1283 27.2386Z" fill="white"/>
<path d="M41.562 41.3769L37.8372 40.787L37.2472 44.5118L41.562 41.3769Z" fill="white"/>
<path d="M37.9191 45.4367C37.5452 45.7084 37.0442 45.7278 36.6501 45.4863C36.256 45.2448 36.0459 44.7896 36.1182 44.3331L36.7082 40.6082C36.8069 39.9848 37.3926 39.5593 38.016 39.658L41.7409 40.248C42.1974 40.3203 42.5654 40.6607 42.6733 41.1102C42.7812 41.5596 42.6079 42.0301 42.234 42.3018L37.9191 45.4367Z" fill="white"/>
<path d="M22.7527 44.5119L22.1628 40.787L18.4379 41.377L22.7527 44.5119Z" fill="white"/>
<path d="M17.766 42.3018C17.392 42.0301 17.2187 41.5596 17.3266 41.1102C17.4345 40.6607 17.8025 40.3203 18.2591 40.248L21.9839 39.658C22.6074 39.5593 23.193 39.9848 23.2917 40.6082L23.8817 44.3331C23.954 44.7896 23.744 45.2448 23.3499 45.4863C22.9557 45.7278 22.4548 45.7084 22.0808 45.4367L17.766 42.3018Z" fill="white"/>
<path d="M13.9589 27.5919L17.3191 25.8798L15.607 22.5195L13.9589 27.5919Z" fill="white"/>
<path d="M14.5198 22.1662C14.6627 21.7266 15.0565 21.4164 15.5173 21.3802C15.9781 21.3439 16.4156 21.5887 16.6255 22.0006L18.3376 25.3608C18.6242 25.9232 18.4004 26.6117 17.8381 26.8982L14.4778 28.6104C14.066 28.8202 13.5682 28.7611 13.2167 28.4609C12.8652 28.1607 12.7288 27.6783 12.8717 27.2386L14.5198 22.1662Z" fill="white"/>
</svg>
