<svg width="60" height="60" viewBox="0 0 60 60" fill="none" xmlns="http://www.w3.org/2000/svg">
<path d="M49.273 25.0506C48.5855 22.2918 47.282 20.2115 44.5053 20.2115H40.9251V24.4435C40.9251 27.7291 38.1394 30.4968 34.961 30.4968H25.4256C22.8185 30.4968 20.6579 32.7289 20.6579 35.3449V44.4339C20.6579 47.0231 22.9078 48.5409 25.4256 49.2819C28.4433 50.1658 31.345 50.3265 34.961 49.2819C37.3627 48.5855 39.7287 47.1838 39.7287 44.4339V40.8001H30.2022V39.5858H44.5053C47.282 39.5858 48.3087 37.6484 49.273 34.7467C50.273 31.7557 50.2283 28.8808 49.273 25.0506ZM35.5592 43.2196C36.5502 43.2196 37.3538 44.0321 37.3538 45.0321C37.3538 46.0409 36.5502 46.8534 35.5592 46.8534C34.5771 46.8534 33.7646 46.032 33.7646 45.0321C33.7735 44.0232 34.5771 43.2196 35.5592 43.2196ZM24.9881 29.3004H34.5235C37.1752 29.3004 39.2912 27.113 39.2912 24.4524V15.3545C39.2912 12.7653 37.1127 10.8279 34.5235 10.3904C31.3272 9.86361 27.8541 9.8904 24.9881 10.3993C20.9525 11.1136 20.2204 12.6046 20.2204 15.3634V18.9972H29.7647V20.2115H16.6402C13.8635 20.2115 11.435 21.8811 10.6761 25.0506C9.80113 28.6844 9.76541 30.9522 10.6761 34.7467C11.3546 37.568 12.9707 39.5858 15.7474 39.5858H19.024V35.2288C19.024 32.0771 21.7471 29.3004 24.9881 29.3004ZM24.3899 16.5687C23.3989 16.5687 22.5953 15.7563 22.5953 14.7563C22.6043 13.7474 23.3989 12.9349 24.3899 12.9349C25.372 12.9349 26.1845 13.7563 26.1845 14.7563C26.1845 15.7563 25.381 16.5687 24.3899 16.5687Z" fill="white"/>
</svg>
