<svg width="60" height="60" viewBox="0 0 60 60" fill="none" xmlns="http://www.w3.org/2000/svg">
<path d="M54 43.1258C52.254 43.5697 51.174 43.1453 50.2052 41.6905L43.3141 32.1566L42.318 30.8365L34.2705 41.7222C33.3511 43.0319 32.3866 43.6014 30.6705 43.1381L40.9755 29.305L31.3815 16.8098C33.0314 16.489 34.1715 16.6521 35.1838 18.1299L42.3313 27.7826L49.5313 18.1824C50.4536 16.8728 51.4454 16.3752 53.1014 16.8576L49.3816 21.7897L44.3415 28.3521C43.7414 29.102 43.8239 29.6154 44.3761 30.3393L54 43.1258ZM6.01224 29.0739L6.855 24.9278C9.15001 16.7226 18.555 13.3131 25.0412 18.383C28.8316 21.3649 29.7737 25.583 29.5862 30.308H8.22013C7.89936 38.813 14.0208 43.9459 21.8249 41.3273C24.5624 40.4078 26.1748 38.264 26.9819 35.5824C27.3916 34.2385 28.0691 34.0282 29.3324 34.4124C28.6876 37.7665 27.2325 40.5684 24.1574 42.3219C19.563 44.9467 13.0045 44.0978 9.55501 40.4499C7.49976 38.3331 6.65088 35.6515 6.27 32.7834C6.20988 32.3092 6.09 31.8578 6 31.4035C6.00792 30.6273 6.01224 29.8515 6.01224 29.0754V29.0739ZM8.25901 28.504H27.5669C27.4409 22.3541 23.6116 17.9859 18.3779 17.9488C12.633 17.9038 8.50777 22.168 8.25865 28.504H8.25901Z" fill="white"/>
</svg>
