<svg width="60" height="60" viewBox="0 0 60 60" fill="none" xmlns="http://www.w3.org/2000/svg">
<path fill-rule="evenodd" clip-rule="evenodd" d="M18 10C13.5817 10 10 13.5817 10 18V42C10 46.4183 13.5817 50 18 50H42C46.4183 50 50 46.4183 50 42V18C50 13.5817 46.4183 10 42 10H18ZM20.3287 35.4779C20.9347 35.6954 21.7273 35.8508 22.7063 35.9441V38.4149H25.3636V35.9208C26.0785 35.812 26.669 35.6333 27.1352 35.3846C27.6169 35.1204 27.9977 34.8174 28.2774 34.4755C28.5727 34.1181 28.7824 33.7374 28.9068 33.3333C29.0311 32.9138 29.0932 32.4942 29.0932 32.0746C29.0932 31.4685 28.9845 30.9402 28.7669 30.4895C28.5649 30.0389 28.2774 29.6504 27.9044 29.324C27.5315 28.9821 27.0886 28.6869 26.5758 28.4382C26.0629 28.1741 25.5035 27.9254 24.8974 27.6923C24.4934 27.5525 24.1437 27.4281 23.8485 27.3194C23.5532 27.195 23.2968 27.0707 23.0793 26.9464C22.8772 26.8221 22.7218 26.6822 22.6131 26.5268C22.5198 26.3559 22.4732 26.1461 22.4732 25.8974C22.4732 25.54 22.6131 25.2292 22.8928 24.965C23.188 24.7009 23.7086 24.5688 24.4545 24.5688C25.1072 24.5688 25.7366 24.6465 26.3427 24.8019C26.9643 24.9417 27.5004 25.1049 27.9511 25.2914L28.6037 22.8904C28.2929 22.7661 27.8578 22.6263 27.2984 22.4709C26.7545 22.3155 26.1251 22.2067 25.4103 22.1445V20H22.7529V22.2611C22.1469 22.4009 21.634 22.603 21.2145 22.8671C20.7949 23.1158 20.453 23.411 20.1888 23.7529C19.9402 24.0948 19.7537 24.4678 19.6294 24.8718C19.5206 25.2758 19.4662 25.6954 19.4662 26.1305C19.4662 26.7366 19.5672 27.2494 19.7692 27.669C19.9868 28.073 20.2665 28.4227 20.6084 28.718C20.9503 28.9977 21.3388 29.2385 21.7739 29.4406C22.209 29.6426 22.6519 29.8213 23.1026 29.9767C23.5688 30.1476 23.9883 30.303 24.3613 30.4429C24.7343 30.5672 25.0451 30.7148 25.2937 30.8858C25.5579 31.0412 25.7521 31.2199 25.8765 31.4219C26.0163 31.6239 26.0863 31.8648 26.0863 32.1445C26.0863 32.6263 25.9153 32.9837 25.5734 33.2168C25.2316 33.4344 24.6255 33.5431 23.7552 33.5431C23.0093 33.5431 22.3023 33.4499 21.634 33.2634C20.9658 33.0614 20.3831 32.8438 19.8858 32.6107L19 34.8951C19.2953 35.0661 19.7382 35.2603 20.3287 35.4779ZM41.3308 37.5059H30.0488V40.0001H41.3308V37.5059Z" fill="white"/>
</svg>
