<svg width="60" height="60" viewBox="0 0 60 60" fill="none" xmlns="http://www.w3.org/2000/svg">
<path d="M14.8931 23.8687L22.567 44.8868C17.1991 42.286 13.502 36.782 13.502 30.4161C13.502 28.0799 14.001 25.8722 14.8931 23.8687ZM40.44 29.6071C40.44 27.6187 39.7293 26.2427 39.1169 25.1691C38.3004 23.846 37.5368 22.7195 37.5368 21.3964C37.5368 19.9146 38.6557 18.5386 40.2358 18.5386C40.3039 18.5386 40.3719 18.5461 40.4475 18.5537C37.5821 15.9302 33.7716 14.3274 29.5831 14.3274C23.9657 14.3274 19.0211 17.2079 16.1406 21.5779C16.5186 21.593 16.874 21.6006 17.1764 21.6006C18.8548 21.6006 21.4632 21.3964 21.4632 21.3964C22.3326 21.3435 22.4309 22.6212 21.569 22.7195C21.569 22.7195 20.6996 22.8178 19.7318 22.8707L25.5912 40.2901L29.1144 29.7356L26.6119 22.8707C25.7424 22.8178 24.9259 22.7195 24.9259 22.7195C24.0564 22.6666 24.1623 21.3435 25.0242 21.3964C25.0242 21.3964 27.6779 21.6006 29.258 21.6006C30.9365 21.6006 33.5448 21.3964 33.5448 21.3964C34.4143 21.3435 34.5126 22.6212 33.6507 22.7195C33.6507 22.7195 32.7812 22.8178 31.8135 22.8707L37.6275 40.1615L39.2303 34.8012C39.9107 32.5784 40.44 30.9831 40.44 29.6071ZM29.8629 31.8223L25.0393 45.847C26.4833 46.2704 28.003 46.5048 29.5831 46.5048C31.4581 46.5048 33.25 46.1797 34.9208 45.59C34.8755 45.5219 34.8377 45.4463 34.8074 45.3707L29.8629 31.8223ZM43.6985 22.6968C43.7666 23.2109 43.8044 23.7553 43.8044 24.3526C43.8044 25.9856 43.502 27.8153 42.5796 30.1137L37.6653 44.3198C42.4511 41.53 45.6643 36.3511 45.6643 30.4161C45.6643 27.6187 44.9536 24.9877 43.6985 22.6968ZM48.3331 30.4161C48.3331 40.7588 39.9183 49.1661 29.5831 49.1661C19.2404 49.1661 10.8331 40.7513 10.8331 30.4161C10.8331 20.0733 19.2404 11.6661 29.5831 11.6661C39.9183 11.6661 48.3331 20.0733 48.3331 30.4161ZM47.4712 30.4161C47.4712 20.5496 39.442 12.528 29.5831 12.528C19.7167 12.528 11.695 20.5496 11.695 30.4161C11.695 40.2825 19.7243 48.3042 29.5831 48.3042C39.4496 48.3042 47.4712 40.2825 47.4712 30.4161Z" fill="white"/>
</svg>
