<svg width="60" height="60" viewBox="0 0 60 60" fill="none" xmlns="http://www.w3.org/2000/svg">
<path d="M16.8412 16.8435C16.8412 16.8435 25.2624 12.6354 29.4722 10.5288C30.2384 10.1511 31.0868 9.97069 31.9404 10.0039C33.217 10.0822 34.7352 11.3171 34.7352 11.3171L49.9977 26.5813V42.8954H42.8931V50H26.314L11.3149 35.0008C10.5049 34.1675 9.99994 32.9926 9.99994 31.8427C9.99994 31.311 10.2999 30.4794 10.5266 30.0011L16.8412 16.8435ZM17.9728 17.9751V37.619C17.9762 38.524 18.0078 39.3256 18.8028 40.1322L27.0057 48.3334H41.2266V41.2288L17.9728 17.9751ZM38.0634 16.8452C36.5651 15.3519 35.0486 13.8787 33.497 12.4404C32.9937 11.9954 32.552 11.6604 31.7137 11.6704C31.0971 11.6938 30.2638 11.9954 30.2638 11.9954L20.5677 16.8435L38.0634 16.8452Z" fill="white"/>
</svg>
