<svg width="60" height="60" viewBox="0 0 60 60" fill="none" xmlns="http://www.w3.org/2000/svg">
<path d="M29.724 50C29.1922 50 28.6524 49.8571 28.1841 49.5873L23.2868 46.6901C22.5566 46.2774 22.9138 46.1345 23.1519 46.0552C24.1282 45.7139 24.3266 45.6424 25.3664 45.0471C25.4775 44.9836 25.6204 45.0074 25.7315 45.0789L29.4938 47.3093C29.6287 47.3886 29.8192 47.3886 29.9462 47.3093L44.6064 38.8481C44.7413 38.7687 44.8287 38.61 44.8287 38.4512V21.5289C44.8287 21.3622 44.7413 21.2114 44.5985 21.1241L29.9462 12.6709C29.8113 12.5915 29.6287 12.5915 29.4938 12.6709L14.8495 21.1321C14.7066 21.2114 14.6193 21.3702 14.6193 21.5369V38.4512C14.6193 38.61 14.7066 38.7687 14.8495 38.8402L18.8658 41.1579C21.0485 42.2453 22.382 40.9674 22.382 39.6736V22.9735C22.382 22.7354 22.5725 22.5528 22.8106 22.5528H24.6679C24.8981 22.5528 25.0965 22.7354 25.0965 22.9735V39.6815C25.0965 42.5866 23.5091 44.2534 20.7548 44.2534C19.9055 44.2534 19.2388 44.2534 17.3815 43.3327L13.5398 41.1182C12.5874 40.5705 12 39.5466 12 38.4433V21.5289C12 20.4336 12.5874 19.4017 13.5398 18.8541L28.1841 10.3929C29.1128 9.86903 30.3431 9.86903 31.2638 10.3929L45.924 18.862C46.8765 19.4097 47.4638 20.4336 47.4638 21.5369V38.4512C47.4638 39.5466 46.8765 40.5705 45.924 41.1261L31.2638 49.5873C30.7955 49.8571 30.2637 50 29.724 50ZM41.5585 33.3237C41.5585 30.1568 39.4154 29.3154 34.915 28.7201C30.359 28.1169 29.8986 27.8073 29.8986 26.7437C29.8986 25.8627 30.2875 24.688 33.6609 24.688C36.6691 24.688 37.7803 25.3388 38.2407 27.3708C38.2804 27.5613 38.455 27.7041 38.6534 27.7041H40.5584C40.6774 27.7041 40.7886 27.6565 40.8679 27.5692C40.9473 27.4819 40.987 27.3628 40.9791 27.2438C40.6854 23.7434 38.3598 22.1163 33.6609 22.1163C29.4779 22.1163 26.9856 23.8784 26.9856 26.839C26.9856 30.0456 29.47 30.9346 33.4783 31.3315C38.2804 31.7998 38.6534 32.5062 38.6534 33.4507C38.6534 35.0858 37.3358 35.7843 34.2482 35.7843C30.3669 35.7843 29.5176 34.808 29.2319 32.8793C29.2001 32.6729 29.0255 32.5221 28.8112 32.5221H26.9142C26.6761 32.5221 26.4935 32.7126 26.4935 32.9428C26.4935 35.4113 27.8349 38.356 34.2562 38.356C38.8916 38.348 41.5585 36.5145 41.5585 33.3237Z" fill="white"/>
</svg>
