<svg width="60" height="60" viewBox="0 0 60 60" fill="none" xmlns="http://www.w3.org/2000/svg">
<path d="M45.7895 10H14.2105C11.8713 10 10 11.8713 10 14.2105V45.7895C10 48.1287 11.8713 50 14.2105 50H45.7895C48.0819 50 50 48.1287 50 45.7895V14.2105C50 11.8713 48.1287 10 45.7895 10ZM29.9298 34.3743C31.2398 34.3743 32.6433 33.8596 34 32.6433L35.8713 34.7953C33.9064 36.386 31.6608 37.2749 29.4152 37.2749C24.9708 37.2749 22.1637 34.3275 22.8187 30.1637C23.4737 26 27.2632 23.0526 31.7076 23.0526C33.8597 23.0526 35.8713 23.8947 37.2749 25.4386L34.655 27.5906C33.9064 26.6082 32.6433 25.9532 31.2398 25.9532C28.5731 25.9532 26.5146 27.6842 26.0936 30.1637C25.7193 32.6433 27.2164 34.3743 29.9298 34.3743Z" fill="white"/>
</svg>
