<svg width="60" height="60" viewBox="0 0 60 60" fill="none" xmlns="http://www.w3.org/2000/svg">
<path d="M38.0697 35.4267C37.7997 31.8637 36.6506 29.5542 36.091 28.2453C35.5316 26.9367 34.6716 25.7116 34.6711 25.7135C34.6694 25.7191 33.8968 29.8829 32.5075 32.8954C32.2756 33.3986 31.9677 34.0267 31.6569 34.5326C30.6977 36.2259 29.3063 37.8459 28.4768 39.4879C27.6543 41.1152 27.5017 42.7269 27.5783 44.5593C27.6554 46.4017 28.081 48.2088 28.4896 50C30.0301 49.6677 31.371 49.0989 32.5309 48.3719C35.5834 46.4582 37.4278 43.3973 37.952 40.0997C37.952 40.0997 37.9776 39.9658 37.9889 39.8025C38.2254 37.2539 38.1472 36.4498 38.0697 35.4267Z" fill="white" fill-opacity="0.5"/>
<path d="M38.0697 35.4267C37.7997 31.8637 36.6506 29.5542 36.091 28.2453C35.5316 26.9367 34.6716 25.7116 34.6711 25.7135L34.4658 25.408C29.9644 19.089 21.3313 15.934 14.0374 18.8582C13.6862 23.2874 15.7397 30.9084 23.2311 33.034C26.2597 33.9657 28.6846 33.7245 31.6569 34.5326C31.657 34.5326 31.6567 34.5327 31.6569 34.5326C31.6569 34.5326 34.6781 35.5854 36.4357 37.1644C37.2263 37.8745 38.0179 38.809 37.9782 39.9205C38.2286 37.2752 38.1484 36.466 38.0697 35.4267Z" fill="white"/>
<path fill-rule="evenodd" clip-rule="evenodd" d="M34.7985 22.0053C33.734 18.8912 34.1851 16.8045 36.1324 13.9005C37.0612 12.5149 38.6648 10.9078 40.0702 10C45.7406 13.5533 47.8373 20.1719 45.7519 26.3187C44.2342 30.7912 42.8103 32.6664 39.21 37.2682C39.6296 32.3397 37.8951 28.9231 36.192 25.1267C35.7587 24.1608 35.1593 23.0611 34.7985 22.0053Z" fill="white"/>
</svg>
