<svg width="60" height="60" viewBox="0 0 60 60" fill="none" xmlns="http://www.w3.org/2000/svg">
<path d="M40.8152 33.277C38.7296 31.8988 37.538 30.7342 36.4999 28.646C35.7898 30.0768 34.1322 32.2038 31.3361 33.8775C29.9401 38.2202 23.2999 46.531 21.1507 45.3526C20.5145 45.0042 20.3938 44.5453 20.5375 44.0716C20.6916 42.8846 23.1473 40.1561 23.1473 40.1561C23.1473 40.1561 23.199 40.7288 23.9847 41.9347C22.9472 38.7135 25.6995 34.7388 26.4283 33.3857C27.5739 33.0208 27.657 31.5495 27.657 31.5495C27.7303 29.2758 26.7146 27.6297 25.7306 26.6454C26.4375 27.5084 26.6663 28.8127 26.7 30.0072V30.0138C26.7034 30.1486 26.7034 30.2812 26.7031 30.4134C26.6695 31.402 26.3705 32.7679 25.7306 32.7679L25.7323 32.7765C25.0743 32.7483 24.2618 32.8889 23.5362 33.1157L21.9315 33.4992C21.9315 33.4992 22.7873 33.4601 23.2493 33.8591C22.7347 34.6971 21.5909 35.7372 20.3153 36.328C18.459 37.189 17.9258 35.4759 18.8681 34.3622C19.0996 34.0903 19.3333 33.8606 19.5543 33.6726C19.412 33.5251 19.3223 33.3282 19.2988 33.0781C19.2985 33.0766 19.2976 33.0755 19.2973 33.0743C19.168 32.506 19.2393 31.7683 20.0436 30.5954C20.202 30.3473 20.3926 30.0929 20.6206 29.8344C20.6278 29.8255 20.6338 29.8174 20.6413 29.8088C20.6511 29.7968 20.662 29.7858 20.6724 29.774C20.6781 29.7674 20.6836 29.7611 20.6893 29.7545C20.7468 29.6889 20.808 29.6251 20.873 29.5639C21.8315 28.5824 23.3451 27.5613 25.7306 26.6454C28.5119 22.5566 29.5308 21.7899 29.5308 21.7899C29.8387 21.4748 30.3768 21.0832 30.5749 20.9835C29.1223 18.4591 28.8287 14.901 29.2094 13.9422C29.1786 13.994 29.1501 14.0471 29.1269 14.1021C29.2677 13.7735 29.3623 13.6682 29.5086 13.4952C29.9056 13.026 31.2502 12.7799 31.7329 13.7743C31.9902 14.3044 32.0385 14.9909 32.0301 15.5058C30.9653 15.4503 29.9997 16.6661 29.9997 16.6661C29.9997 16.6661 30.8814 16.2498 31.9772 16.2426C31.9772 16.2426 32.269 16.4965 32.6335 16.9734C32.1414 17.8971 31.333 19.8542 31.9183 21.9089C32.0155 22.3136 32.1624 22.6618 32.3446 22.9576C32.3515 22.9705 32.3573 22.9832 32.3645 22.9964C32.3791 23.0154 32.3921 23.0315 32.4059 23.049C33.3741 24.5071 35.149 24.6776 35.149 24.6776C34.3136 24.2607 33.6328 23.5967 33.1895 22.7917C32.9595 22.3611 32.8184 21.9977 32.7319 21.7105C32.2615 19.8956 32.9535 18.836 33.3497 18.1253C34.261 16.7118 35.9209 15.8563 37.7053 16.0598C40.2098 16.3458 42.0083 18.6074 41.7222 21.1111C41.5474 22.6408 40.6353 23.9063 39.3816 24.5945C39.6831 25.4107 39.3606 26.3999 39.3606 26.3999C40.1201 27.3552 40.1535 27.9057 40.1273 28.4171C39.1622 28.2547 38.2247 28.9061 38.2247 28.9061C38.2247 28.9061 40.0865 28.4617 41.168 29.4265C41.8711 30.1828 42.3403 30.8665 42.62 31.3716C43.0205 32.0917 44.8793 32.1429 44.6678 33.438C44.4559 34.7313 43.038 34.7437 40.8152 33.277ZM30.0002 10C18.9541 10 9.99994 18.9544 9.99994 29.9991C9.99994 41.0447 18.9541 50 30.0002 50C41.0452 50 49.9997 41.0447 49.9997 29.9991C49.9997 18.9541 41.0452 10 30.0002 10Z" fill="white"/>
<path d="M31.2148 24.8607C31.4486 24.6267 31.4486 24.2472 31.2148 24.0135C30.9805 23.7795 30.6016 23.7795 30.3676 24.0135C30.1333 24.2472 30.1333 24.6267 30.3676 24.8607C30.6016 25.0944 30.9805 25.0944 31.2148 24.8607Z" fill="white"/>
<path d="M29.1016 25.2793C28.8676 25.513 28.8676 25.8925 29.1016 26.1265C29.3353 26.3605 29.7148 26.3605 29.9488 26.1265C30.1825 25.8925 30.1825 25.513 29.9488 25.2793C29.7148 25.0456 29.3353 25.0456 29.1016 25.2793Z" fill="white"/>
<path d="M32.7773 25.5909C32.411 25.2247 31.8174 25.2252 31.4517 25.5909L30.6718 26.3705C30.3055 26.7371 30.3055 27.3304 30.6718 27.6964L31.5279 28.5525C31.8941 28.9191 32.4875 28.9188 32.8535 28.5525L33.6331 27.7729C33.9994 27.4066 33.9994 26.813 33.6331 26.447L32.7773 25.5909Z" fill="white"/>
<path d="M37.5288 21.9146C36.9104 21.1735 38.0661 19.8284 38.7911 20.6316C40.1264 22.1115 38.148 22.6557 37.5288 21.9146ZM40.1865 22.6871C41.176 20.8032 39.7763 19.7027 38.8144 18.7995C37.2735 17.3509 35.7366 16.7247 33.9815 18.7302C32.2273 20.7359 33.3416 23.062 34.9463 24.2099C36.5516 25.3581 39.1959 24.5706 40.1865 22.6871Z" fill="white"/>
</svg>
