<svg width="60" height="60" viewBox="0 0 60 60" fill="none" xmlns="http://www.w3.org/2000/svg">
<path d="M8.77335 26.6562C8.67598 26.6562 8.65163 26.6075 8.70032 26.5345L9.21155 25.8772C9.26024 25.8042 9.38196 25.7555 9.47934 25.7555H18.1702C18.2676 25.7555 18.2919 25.8285 18.2432 25.9016L17.8294 26.5345C17.7807 26.6075 17.659 26.6806 17.586 26.6806L8.77335 26.6562Z" fill="white"/>
<path d="M5.09738 28.8959C5 28.8959 4.97566 28.8472 5.02434 28.7741L5.53557 28.1168C5.58426 28.0438 5.70598 27.9951 5.80336 27.9951H16.9043C17.0017 27.9951 17.0504 28.0682 17.026 28.1412L16.8313 28.7254C16.8069 28.8228 16.7096 28.8715 16.6122 28.8715L5.09738 28.8959Z" fill="white"/>
<path d="M10.9887 31.1356C10.8913 31.1356 10.867 31.0625 10.9157 30.9895L11.2565 30.3809C11.3052 30.3079 11.4025 30.2348 11.4999 30.2348H16.3688C16.4661 30.2348 16.5148 30.3079 16.5148 30.4052L16.4661 30.9895C16.4661 31.0869 16.3687 31.1599 16.2957 31.1599L10.9887 31.1356Z" fill="white"/>
<path d="M36.258 26.218C34.7243 26.6075 33.6775 26.8997 32.1681 27.2892C31.803 27.3865 31.7786 27.4109 31.4622 27.0457C31.097 26.6319 30.8292 26.3641 30.318 26.1206C28.7843 25.366 27.2993 25.5851 25.9117 26.4858C24.2563 27.5569 23.4042 29.1393 23.4286 31.1112C23.4529 33.0587 24.7918 34.6655 26.715 34.9332C28.3704 35.1523 29.7581 34.5681 30.8535 33.3265C31.0726 33.0587 31.2674 32.7666 31.5108 32.4258C30.6345 32.4258 29.539 32.4258 26.8124 32.4258C26.3012 32.4258 26.1795 32.1093 26.3499 31.6955C26.6663 30.9408 27.2506 29.6749 27.5914 29.0419C27.6645 28.8959 27.8349 28.6524 28.2 28.6524C29.4416 28.6524 34.0183 28.6524 37.0613 28.6524C37.0126 29.3097 37.0126 29.967 36.9153 30.6243C36.6475 32.3771 35.9902 33.9838 34.919 35.3958C33.1662 37.7085 30.8779 39.1448 27.9809 39.5343C25.5952 39.8508 23.3799 39.3882 21.4323 37.9276C19.6309 36.5643 18.6084 34.7628 18.3406 32.5232C18.0242 29.8696 18.8032 27.4839 20.4099 25.3903C22.1383 23.1263 24.4267 21.69 27.2263 21.1788C29.5146 20.7649 31.7056 21.0327 33.6775 22.3716C34.9677 23.2237 35.8928 24.3922 36.5014 25.8042C36.6475 26.0233 36.5501 26.145 36.258 26.218Z" fill="white"/>
<path d="M44.3159 39.6804C42.1006 39.6317 40.08 38.9987 38.3759 37.5381C36.9396 36.2965 36.0389 34.7141 35.7467 32.8396C35.3085 30.0888 36.0632 27.6543 37.7186 25.4877C39.4957 23.1507 41.638 21.9334 44.535 21.4222C47.0181 20.984 49.3551 21.2275 51.4731 22.6638C53.3963 23.9784 54.5891 25.7555 54.9056 28.0925C55.3195 31.379 54.37 34.0569 52.106 36.3452C50.4993 37.9763 48.5274 38.9987 46.2634 39.4613C45.6061 39.583 44.9488 39.6073 44.3159 39.6804ZM50.1098 29.8453C50.0855 29.5288 50.0855 29.2854 50.0368 29.042C49.5986 26.6319 47.3832 25.2686 45.0705 25.8042C42.8065 26.3154 41.3459 27.7517 40.8103 30.0401C40.3721 31.9389 41.2972 33.8621 43.05 34.6411C44.3889 35.2254 45.7278 35.1523 47.0181 34.4951C48.9413 33.4969 49.9881 31.9389 50.1098 29.8453Z" fill="white"/>
</svg>
