<svg width="60" height="60" viewBox="0 0 60 60" fill="none" xmlns="http://www.w3.org/2000/svg">
<path d="M36.43 18.4481C33.6352 15.6609 30.978 12.9961 30.1858 10C29.4079 12.9961 26.7288 15.6609 23.9343 18.4481C19.7498 22.6328 15.0037 27.3716 15.0037 34.4872C14.8211 42.87 21.4687 49.8138 29.8516 49.9963C38.2345 50.1789 45.1781 43.5312 45.3606 35.1484C45.3654 34.9281 45.3654 34.7077 45.3606 34.4872C45.3606 27.3716 40.6145 22.6328 36.43 18.4481ZM22.8108 35.87C22.3467 36.4536 21.9482 37.0863 21.6224 37.757C21.5982 37.8101 21.5623 37.8572 21.5174 37.8946C21.4725 37.932 21.4198 37.9588 21.3631 37.973H21.2335C20.895 37.973 20.5133 37.3105 20.5133 37.3105C20.4125 37.152 20.3188 36.9863 20.2252 36.8135L20.1604 36.6766C19.2817 34.6673 20.0452 31.808 20.0452 31.808C20.4215 30.4145 21.0355 29.0964 21.8601 27.9117C22.364 27.1594 22.9124 26.4379 23.5024 25.751L24.2227 26.4713L27.622 29.9427C27.6858 30.014 27.7211 30.1063 27.7211 30.202C27.7211 30.2976 27.6858 30.3899 27.622 30.4612L24.0712 34.4008L22.8108 35.87ZM30.3586 45.8162C29.3484 45.8104 28.3614 45.5134 27.5158 44.9606C26.6703 44.4079 26.0021 43.6229 25.5916 42.7C25.181 41.777 25.0455 40.7551 25.2012 39.757C25.3569 38.7589 25.7973 37.8269 26.4695 37.0728C27.5788 35.7548 28.9326 34.4584 30.4018 32.7515C32.1447 34.6097 33.2827 35.8843 34.399 37.2816C34.4865 37.3894 34.5636 37.5052 34.6295 37.6273C35.2401 38.4962 35.5671 39.5326 35.5657 40.5946C35.5676 41.2784 35.4348 41.9559 35.1749 42.5884C34.9149 43.2209 34.533 43.796 34.0508 44.2808C33.5686 44.7657 32.9957 45.1508 32.3646 45.4143C31.7336 45.6777 31.0569 45.8143 30.373 45.8162H30.3586ZM40.2111 37.4688C40.1776 37.5764 40.1147 37.6726 40.0294 37.7464C39.9442 37.8202 39.84 37.8687 39.7286 37.8865H39.6274C39.4208 37.8195 39.2464 37.6784 39.1377 37.4904C38.2276 36.1253 37.1959 34.8452 36.0552 33.666L34.6655 32.2258L30.0493 27.4363C29.0798 26.538 28.1567 25.5909 27.2837 24.5987C27.2622 24.5611 27.2381 24.525 27.2116 24.4907C27.0546 24.2699 26.9309 24.0272 26.8445 23.7705V23.6336C26.7805 23.2421 26.8126 22.8408 26.9381 22.4645C27.0635 22.0881 27.2785 21.7478 27.5646 21.473C28.4577 20.5799 29.358 19.6797 30.2078 18.7434C31.1441 19.7805 32.1453 20.7746 33.1319 21.7611C35.1448 23.6356 36.9662 25.7057 38.5694 27.9408C39.9229 29.8573 40.6592 32.1414 40.6796 34.4877C40.6681 35.4988 40.5103 36.5029 40.2111 37.4688Z" fill="white"/>
</svg>
