<svg width="60" height="60" viewBox="0 0 60 60" fill="none" xmlns="http://www.w3.org/2000/svg">
<path d="M48.0721 20.1498C48.0663 20.1328 48.0595 20.1162 48.0516 20.1C48.0411 20.0685 48.0281 20.0379 48.0128 20.0085C48.0009 19.9902 47.9877 19.9728 47.9732 19.9565C47.9571 19.9324 47.9395 19.9094 47.9205 19.8876C47.9037 19.8715 47.8824 19.8583 47.8641 19.8437C47.8432 19.8257 47.8212 19.809 47.7982 19.7939L40.7479 15.7348C40.6588 15.6834 40.5578 15.6563 40.455 15.6563C40.3521 15.6563 40.2511 15.6834 40.162 15.7348L33.1103 19.7961C33.0876 19.8114 33.0661 19.8283 33.0458 19.8466C33.0258 19.86 33.0068 19.8747 32.9887 19.8905C32.9695 19.912 32.9519 19.9347 32.9359 19.9587C32.9235 19.9762 32.9074 19.9916 32.8964 20.0107C32.8816 20.0403 32.8689 20.0708 32.8583 20.1022C32.8524 20.1191 32.8429 20.1344 32.8378 20.152C32.8244 20.2017 32.8175 20.2529 32.8173 20.3044V28.0123L26.9418 31.3954V16.3127C26.942 16.261 26.9351 16.2095 26.9213 16.1596C26.9169 16.142 26.9067 16.1266 26.9008 16.1098C26.8906 16.0785 26.8778 16.0482 26.8627 16.019C26.8525 15.9999 26.8356 15.9846 26.8232 15.9662C26.8071 15.9422 26.7895 15.9192 26.7704 15.8974C26.7522 15.8818 26.7331 15.8671 26.7133 15.8535C26.6928 15.8356 26.6713 15.819 26.6489 15.8036L19.5964 11.7446C19.5073 11.6932 19.4063 11.6661 19.3034 11.6661C19.2006 11.6661 19.0995 11.6932 19.0105 11.7446L11.9595 15.8036C11.9366 15.8186 11.915 15.8355 11.895 15.8542C11.8748 15.8676 11.8555 15.8823 11.8372 15.8981C11.8182 15.9196 11.8008 15.9423 11.7852 15.9662C11.772 15.9846 11.7559 15.9999 11.7449 16.019C11.7299 16.0481 11.7174 16.0785 11.7075 16.1098C11.6995 16.1257 11.6924 16.1421 11.6863 16.1589C11.6728 16.209 11.6659 16.2607 11.6658 16.3127V40.4606C11.6655 40.5637 11.6924 40.665 11.7439 40.7544C11.7953 40.8438 11.8694 40.918 11.9587 40.9696L26.0578 49.0877C26.0891 49.1035 26.1217 49.1167 26.1552 49.1273C26.1706 49.1331 26.1852 49.1419 26.2014 49.1463C26.2997 49.1727 26.4033 49.1727 26.5016 49.1463C26.5163 49.1427 26.5287 49.1346 26.5419 49.1302C26.5773 49.1191 26.6116 49.1049 26.6445 49.0877L40.7479 40.9696C40.8372 40.918 40.9113 40.8438 40.9628 40.7544C41.0142 40.665 41.0412 40.5637 41.0409 40.4606V32.7511L47.7967 28.8612C47.8866 28.8094 47.961 28.7346 48.0125 28.6445C48.064 28.5544 48.0906 28.4523 48.0897 28.3485V20.3029C48.0901 20.2513 48.0842 20.1999 48.0721 20.1498ZM19.3027 12.9318L25.176 16.3119L19.302 19.6943L13.4294 16.3127L19.3027 12.9318ZM25.7663 17.3263V32.0714L22.3584 34.0336L19.8908 35.4545V20.7116L23.2988 18.7494L25.7663 17.3263ZM25.7663 47.5592L12.8406 40.1207V17.3293L15.3081 18.7487L18.7153 20.7116V36.4718C18.7168 36.4939 18.7197 36.516 18.7241 36.5377C18.7258 36.5668 18.7298 36.5957 18.7358 36.6241C18.7433 36.6468 18.7526 36.6689 18.7636 36.6901C18.7718 36.7153 18.7821 36.7398 18.7944 36.7633C18.8079 36.7832 18.8226 36.8022 18.8383 36.8204C18.853 36.842 18.8692 36.8626 18.8867 36.8819C18.9035 36.8981 18.9248 36.9098 18.9431 36.9244C18.9631 36.9418 18.9841 36.9579 19.0061 36.9728L25.7582 40.7945L25.7663 47.5592ZM26.3522 39.7831L20.4885 36.4637L26.6474 32.9181L33.4047 29.0282L39.2736 32.4069L34.9669 34.8649L26.3522 39.7831ZM39.8668 40.1178L26.9404 47.5628V40.8019L36.5145 35.338L39.8668 33.4227V40.1178ZM39.8668 31.3925L37.3993 29.9767L33.9914 28.0145V21.3188L36.4589 22.7397L39.8668 24.7033V31.3925ZM40.4528 23.6816L34.5788 20.3L40.4528 16.9191L46.3253 20.2992L40.4528 23.6816ZM41.0387 31.3925V24.7033L44.454 22.7397L46.9207 21.3188V28.0123L41.0387 31.3925Z" fill="white"/>
</svg>
