<svg xmlns="http://www.w3.org/2000/svg" fill="none" viewBox="0 0 112 12"><g clip-path="url(#a)"><path stroke="#2fc365" d="M11.5 6a5.5 5.5 0 1 0-11 0 5.5 5.5 0 0 0 11 0Z"/><path stroke="#ffb700" d="M31.5 6a5.5 5.5 0 1 0-11 0 5.5 5.5 0 0 0 11 0Z"/><path stroke="#f87171" d="M51.5 6a5.5 5.5 0 1 0-11 0 5.5 5.5 0 0 0 11 0Z"/><path stroke="#c084fc" d="M71.5 6a5.5 5.5 0 1 0-11 0 5.5 5.5 0 0 0 11 0Z"/><path stroke="#60a5fa" d="M91.5 6a5.5 5.5 0 1 0-11 0 5.5 5.5 0 0 0 11 0Z"/><path stroke="#a1a1aa" d="M111.5 6a5.5 5.5 0 1 0-11 0 5.5 5.5 0 0 0 11 0Z"/></g><defs><clipPath id="a"><path fill="#fff" d="M0 0h112v12H0z"/></clipPath></defs></svg>
